<svg width="36" height="36" viewBox="0 0 36 36" fill="none" xmlns="http://www.w3.org/2000/svg">
<path fill-rule="evenodd" clip-rule="evenodd" d="M25.5 7.5H10.5C10.1022 7.5 9.72064 7.65804 9.43934 7.93934C9.15804 8.22064 9 8.60218 9 9V27C9 27.3978 9.15804 27.7794 9.43934 28.0607C9.72064 28.342 10.1022 28.5 10.5 28.5H25.5C25.8978 28.5 26.2794 28.342 26.5607 28.0607C26.842 27.7794 27 27.3978 27 27V9C27 8.60218 26.842 8.22064 26.5607 7.93934C26.2794 7.65804 25.8978 7.5 25.5 7.5ZM10.5 4.5C9.30653 4.5 8.16193 4.97411 7.31802 5.81802C6.47411 6.66193 6 7.80653 6 9V27C6 28.1935 6.47411 29.3381 7.31802 30.182C8.16193 31.0259 9.30653 31.5 10.5 31.5H25.5C26.6935 31.5 27.8381 31.0259 28.682 30.182C29.5259 29.3381 30 28.1935 30 27V9C30 7.80653 29.5259 6.66193 28.682 5.81802C27.8381 4.97411 26.6935 4.5 25.5 4.5H10.5Z" fill="#3F3F3F"/>
<path d="M12 10.5H24V13.5H12V10.5ZM12 16.5H24V19.5H12V16.5ZM12 22.5H19.5V25.5H12V22.5Z" fill="#3F3F3F"/>
</svg>
