<svg width="81" height="49" viewBox="0 0 81 49" fill="none" xmlns="http://www.w3.org/2000/svg">
<path d="M39.1131 10.5187L39.119 37.3676C39.119 37.5788 39.1248 37.7899 39.1365 37.9996C39.1367 38.0976 39.2104 38.1797 39.3075 38.1902C39.3994 38.2048 39.4922 38.2122 39.5852 38.2122H45.0563L45.1029 38.212C45.3886 38.2109 45.5358 38.2103 45.6117 38.1365C45.6923 38.058 45.6922 37.8967 45.6921 37.5639L45.6921 37.1096C45.6834 34.1076 45.6834 31.1057 45.6921 28.1037C45.6925 28.0087 45.6863 27.9128 45.6801 27.8168C45.6623 27.5421 45.6445 27.2658 45.7798 27.004C46.0479 26.9038 46.324 26.9177 46.5991 26.9314C46.6946 26.9362 46.79 26.9409 46.8849 26.9409H51.0229C51.3825 26.9395 51.4336 26.897 51.5009 26.57C51.5298 26.4325 51.545 26.2926 51.5462 26.1521V21.7195C51.5417 21.5563 51.5197 21.3941 51.4804 21.2357C51.4175 20.9629 51.3664 20.9219 51.1091 20.9087H46.5458C46.4834 20.9087 46.421 20.9098 46.3587 20.911C46.2339 20.9133 46.1092 20.9155 45.9845 20.9087C45.7667 20.9087 45.7097 20.8398 45.6921 20.6154C45.6907 20.592 45.6907 20.5685 45.6921 20.5451V16.1829C45.6936 15.9043 45.7594 15.8427 46.0152 15.8295H51.4906C51.6777 15.8295 51.8648 15.8266 52.0505 15.8163C52.1742 15.8163 52.2747 15.7161 52.2756 15.592C52.2858 15.4058 52.2858 15.2181 52.2858 15.0304V10.4571C52.2858 10.3982 52.2861 10.3437 52.2864 10.2932C52.2881 9.97434 52.289 9.81423 52.2096 9.73474C52.13 9.65507 51.9699 9.65587 51.6493 9.65746C51.6007 9.6577 51.5484 9.65796 51.4921 9.65796H39.9901C39.9027 9.65796 39.8239 9.65716 39.7529 9.65645C39.4331 9.65322 39.2717 9.65159 39.1909 9.73145C39.1086 9.81279 39.1098 9.97864 39.1122 10.3134C39.1126 10.3758 39.1131 10.444 39.1131 10.5187Z" fill="white"/>
<path d="M60.7957 28.7195V20.8383C60.8149 20.3226 60.7983 19.8062 60.746 19.2929C60.7297 19.0826 60.7361 18.8712 60.765 18.6624C60.8337 17.7973 60.8498 16.9292 60.8322 16.0626C60.8322 15.7855 60.7679 15.7269 60.4975 15.7254H57.3417C57.2209 15.7254 57.1148 15.7269 57.0217 15.7283C56.6836 15.7331 56.5168 15.7355 56.4355 15.6533C56.3562 15.5732 56.3582 15.4128 56.362 15.096C56.3632 15.0002 56.3645 14.8901 56.3639 14.7635C56.359 13.8095 56.3606 12.8554 56.3622 11.9014L56.3623 11.8914C56.3631 11.4177 56.3639 10.944 56.3639 10.4703C56.3639 10.2826 56.3639 10.0949 56.3756 9.90869C56.3728 9.84985 56.3937 9.79236 56.4335 9.74909C56.4733 9.70582 56.5288 9.68038 56.5875 9.67849C56.7498 9.66676 56.9135 9.66382 57.0772 9.66382H71.1093C71.8299 9.66382 71.8401 9.66382 71.8401 10.4131V14.9864C71.8401 15.1506 71.8401 15.3148 71.827 15.4791C71.8294 15.5385 71.8078 15.5965 71.7671 15.6398C71.7264 15.6831 71.67 15.7081 71.6107 15.7093C71.447 15.7195 71.2832 15.7239 71.121 15.7254H68.2371C68.05 15.7254 67.8629 15.7254 67.6773 15.7357C67.555 15.7289 67.4498 15.8214 67.4405 15.9439C67.431 16.0134 67.4251 16.0834 67.4229 16.1536C67.4144 16.5501 67.4014 16.9468 67.3885 17.3435C67.3593 18.236 67.3301 19.1289 67.3513 20.0201C67.431 23.4442 67.4167 26.8682 67.4024 30.2927L67.4023 30.2954C67.3954 31.9586 67.3884 33.622 67.3923 35.2855C67.3923 35.7894 67.3781 36.2954 67.3639 36.8016C67.3544 37.1392 67.3449 37.4776 67.3396 37.8148C67.3323 38.2019 67.2914 38.243 66.8792 38.2445H63.5173C62.7456 38.2445 61.9738 38.2445 61.202 38.2313C60.8834 38.2313 60.8352 38.177 60.8162 37.8691C60.8015 37.6125 60.8015 37.353 60.8015 37.0949C60.7976 34.3031 60.7957 31.5113 60.7957 28.7195Z" fill="white"/>
<path d="M11.6101 10.5788L11.6145 37.8764C11.6277 38.1873 11.6671 38.221 12.0033 38.2342H22.3827C22.4373 38.2342 22.492 38.2352 22.5465 38.2362C22.6555 38.2381 22.7643 38.2401 22.8724 38.2342C23.1574 38.2225 23.2071 38.177 23.2203 37.9116V32.4233C23.2195 31.9807 23.2386 31.7752 23.1453 31.6804C23.0507 31.5844 22.8405 31.6022 22.3769 31.6022H18.5897C18.1512 31.6008 18.0971 31.5465 18.0868 31.1286C18.0693 30.5656 18.0693 30.0025 18.0693 29.4395V10.6492C18.0693 10.5788 18.0703 10.5084 18.0712 10.438C18.0732 10.2973 18.0751 10.1565 18.0693 10.0157C18.0561 9.71514 18.0064 9.67116 17.682 9.65796H12.5617C12.0241 9.66018 11.7868 9.62872 11.6836 9.73166C11.5826 9.83248 11.6101 10.0622 11.6101 10.5788Z" fill="white"/>
<path fill-rule="evenodd" clip-rule="evenodd" d="M0.932552 48.1154C0.823233 48.1154 0.726609 48.1167 0.641228 48.1178C0.311309 48.122 0.149221 48.1241 0.071195 48.0441C-0.00412926 47.967 -0.00114385 47.8134 0.00472359 47.5115C0.00659954 47.4149 0.00877008 47.3033 0.00877008 47.1741C0.00292336 31.9522 0 16.7283 0 1.50254V0.587579C0 0.0303947 0.0131551 0.0127994 0.596366 0.00106923H79.5856C79.659 0.00106923 79.7272 0.000762161 79.7904 0.000477131C80.2176 -0.00144707 80.4216 -0.00236605 80.5174 0.0989801C80.6051 0.191624 80.6024 0.369724 80.5972 0.710631C80.5958 0.803356 80.5942 0.90913 80.5942 1.02746V47.1213C80.5942 47.2482 80.596 47.3591 80.5976 47.4559C80.6031 47.7859 80.6059 47.9536 80.5236 48.0374C80.4389 48.1236 80.264 48.1213 79.909 48.1166C79.8108 48.1153 79.6987 48.1138 79.571 48.114L0.932552 48.1154ZM74.5749 43.0465C74.8074 43.0465 75.0412 43.0392 75.2751 43.0245C75.3734 43.023 75.4532 42.9442 75.4563 42.8456C75.471 42.6125 75.4812 42.3779 75.4812 42.1433V5.47907C75.4666 5.20195 75.411 5.14036 75.1552 5.1257C74.9842 5.1173 74.8112 5.11774 74.6387 5.11818L74.5238 5.11837H35.0292C34.9089 5.11837 34.8029 5.11689 34.7094 5.11558C34.3615 5.11071 34.1876 5.10827 34.102 5.19397C34.0166 5.2795 34.019 5.45284 34.0237 5.79918C34.0251 5.89625 34.0266 6.00691 34.0265 6.13303V30.6917C34.0265 30.9263 34.0221 31.1609 34.0133 31.3955C34.0153 31.4547 33.9932 31.5122 33.9522 31.5547C33.9111 31.5973 33.8546 31.6213 33.7955 31.6213C33.6397 31.6323 33.4838 31.6331 33.3279 31.6339L33.2342 31.6345H28.5349C28.4196 31.6345 28.318 31.6359 28.2287 31.6372C27.9002 31.6419 27.7365 31.6442 27.656 31.5636C27.5761 31.4834 27.5782 31.3214 27.5825 30.9984C27.5836 30.9148 27.5848 30.8202 27.5848 30.7137V6.01426C27.5848 5.93172 27.5855 5.85674 27.5861 5.78863C27.5891 5.45907 27.5906 5.29004 27.5071 5.20427C27.4196 5.11444 27.2388 5.11549 26.8687 5.11763C26.8068 5.11798 26.7397 5.11837 26.6669 5.11837H7.22655C6.91726 5.11837 6.60798 5.10966 6.29927 5.10097C6.1878 5.09784 6.07641 5.0947 5.96512 5.09198C5.74148 5.09198 5.67278 5.13743 5.67278 5.3735C5.65963 5.86617 5.65232 6.35737 5.65232 6.85004V41.331C5.65232 41.589 5.65232 41.8471 5.66109 42.1052C5.66514 42.2426 5.6658 42.3601 5.66638 42.4606C5.66799 42.7449 5.66883 42.8927 5.74316 42.969C5.82378 43.0517 5.99086 43.05 6.33914 43.0467C6.4174 43.0459 6.50479 43.045 6.60241 43.045L74.5749 43.0465Z" fill="white"/>
</svg>
