<svg width="1317" height="605" viewBox="0 0 1317 605" fill="none" xmlns="http://www.w3.org/2000/svg">
<mask id="mask0_2402_1357" style="mask-type:alpha" maskUnits="userSpaceOnUse" x="0" y="3" width="1294" height="602">
<path d="M0 560C0 573.978 0 580.967 2.28361 586.481C5.32843 593.831 11.1687 599.672 18.5195 602.716C24.0326 605 31.0218 605 45 605H1236.43C1259.77 605 1271.44 605 1278.47 600.873C1287.85 595.371 1293.51 585.228 1293.28 574.36C1293.11 566.209 1286.99 556.273 1274.75 536.401L1019.15 121.42C1015.36 115.255 1013.46 112.172 1011.02 109.719C1007.78 106.448 1003.82 103.968 999.467 102.472C996.199 101.35 992.597 100.984 985.393 100.251L49.5546 5.04153C34.3218 3.4918 26.7055 2.71693 20.6582 4.69852C12.5952 7.34064 6.02813 13.2735 2.58348 21.0277C0 26.8433 0 34.499 0 49.8104V560Z" fill="white"/>
</mask>
<g mask="url(#mask0_2402_1357)">
<g opacity="0.6">
<g opacity="0.2">
<path opacity="0.25" d="M737.798 542.997C717.48 530.288 699.553 515.269 685.211 497.94C704.333 492.163 722.261 484.076 737.798 474.834C758.714 462.125 776.642 446.529 790.984 428.621C800.545 434.398 811.302 439.019 823.851 442.485C839.986 446.529 859.109 448.839 881.817 448.839C1004.32 448.839 1025.24 382.409 1025.24 284.208L1025.24 43.3272L738.396 43.3272L738.396 215.468C738.396 295.761 722.261 354.682 651.148 373.744C645.77 375.477 639.196 376.633 633.22 377.788C630.83 363.347 630.232 348.328 630.232 333.309L630.232 -86.6447L1134.6 -86.6447L1134.6 333.309C1134.6 464.436 1053.92 579.389 882.415 579.389C823.253 579.389 775.446 565.525 737.798 542.997Z" fill="#0A142F"/>
</g>
<g opacity="0.4">
<path opacity="0.25" d="M593.182 510.293C627.245 510.293 657.722 505.671 685.211 497.584C704.334 491.808 722.262 483.72 737.799 474.478C758.714 461.77 776.642 446.173 790.984 428.266C804.729 412.092 815.485 393.607 823.852 373.967C838.194 340.463 845.365 303.493 845.365 264.79L845.365 42.9717L738.396 42.9717L738.396 215.112C738.396 295.406 722.262 354.326 651.148 373.389C645.77 375.122 639.197 376.277 633.221 377.432C621.269 379.165 608.122 380.321 593.182 380.321C470.677 380.321 449.761 313.891 449.761 215.69L449.761 42.9717L629.635 42.9717L629.635 -87.0001L341 -87.0001L341 264.79C341 395.34 421.674 510.293 593.182 510.293Z" fill="#0A142F"/>
</g>
</g>
</g>
</svg>
