<svg width="28" height="28" viewBox="0 0 28 28" fill="none" xmlns="http://www.w3.org/2000/svg">
<path d="M11.6669 23.3333H7.00023C6.66967 23.3333 6.39239 23.2213 6.16839 22.9973C5.94439 22.7733 5.83278 22.4964 5.83356 22.1667V14H3.85023C3.57801 14 3.39328 13.8736 3.29606 13.6208C3.19884 13.3681 3.25717 13.1542 3.47106 12.9792L13.2127 4.2C13.4266 3.98611 13.6891 3.87917 14.0002 3.87917C14.3113 3.87917 14.5738 3.98611 14.7877 4.2L18.6669 7.7V5.83333C18.6669 5.50278 18.7789 5.2255 19.0029 5.0015C19.2269 4.7775 19.5038 4.66589 19.8336 4.66667H21.0002C21.3308 4.66667 21.6081 4.77867 21.8321 5.00267C22.0561 5.22667 22.1677 5.50355 22.1669 5.83333V10.85L24.5294 12.9792C24.7433 13.1542 24.8016 13.3681 24.7044 13.6208C24.6072 13.8736 24.4224 14 24.1502 14H22.1669V22.1667C22.1669 22.4972 22.0549 22.7745 21.8309 22.9985C21.6069 23.2225 21.33 23.3341 21.0002 23.3333H16.3336V17.5C16.3336 17.1694 16.2216 16.8922 15.9976 16.6682C15.7736 16.4442 15.4967 16.3326 15.1669 16.3333H12.8336C12.503 16.3333 12.2257 16.4453 12.0017 16.6693C11.7777 16.8933 11.6661 17.1702 11.6669 17.5V23.3333ZM11.6669 11.6958H16.3336C16.3336 11.0736 16.1002 10.563 15.6336 10.164C15.1669 9.765 14.6224 9.56589 14.0002 9.56667C13.378 9.56667 12.8336 9.76617 12.3669 10.1652C11.9002 10.5642 11.6669 11.0744 11.6669 11.6958Z" fill="white"/>
</svg>
