<svg width="28" height="28" viewBox="0 0 28 28" fill="none" xmlns="http://www.w3.org/2000/svg">
<path d="M11.6667 23.3333H6.99998C6.66943 23.3333 6.39215 23.2213 6.16815 22.9973C5.94415 22.7733 5.83254 22.4964 5.83332 22.1666V14H3.84998C3.57776 14 3.39304 13.8736 3.29582 13.6208C3.19859 13.368 3.25693 13.1542 3.47082 12.9792L13.2125 4.19998C13.4264 3.98609 13.6889 3.87915 14 3.87915C14.3111 3.87915 14.5736 3.98609 14.7875 4.19998L18.6667 7.69998V5.83332C18.6667 5.50276 18.7787 5.22548 19.0027 5.00148C19.2267 4.77748 19.5035 4.66587 19.8333 4.66665H21C21.3305 4.66665 21.6078 4.77865 21.8318 5.00265C22.0558 5.22665 22.1674 5.50354 22.1666 5.83332V10.85L24.5291 12.9792C24.743 13.1542 24.8014 13.368 24.7041 13.6208C24.6069 13.8736 24.4222 14 24.15 14H22.1666V22.1666C22.1666 22.4972 22.0546 22.7745 21.8306 22.9985C21.6066 23.2225 21.3298 23.3341 21 23.3333H16.3333V17.5C16.3333 17.1694 16.2213 16.8921 15.9973 16.6681C15.7733 16.4441 15.4964 16.3325 15.1667 16.3333H12.8333C12.5028 16.3333 12.2255 16.4453 12.0015 16.6693C11.7775 16.8933 11.6659 17.1702 11.6667 17.5V23.3333ZM11.6667 11.6958H16.3333C16.3333 11.0736 16.1 10.563 15.6333 10.164C15.1666 9.76498 14.6222 9.56587 14 9.56665C13.3778 9.56665 12.8333 9.76615 12.3667 10.1652C11.9 10.5642 11.6667 11.0744 11.6667 11.6958Z" fill="white"/>
</svg>
