<svg width="24" height="24" viewBox="0 0 24 24" fill="none" xmlns="http://www.w3.org/2000/svg">
<path d="M12.85 12.1C12.6833 12.2666 12.5 12.3083 12.3 12.225C12.1 12.1416 12 11.9833 12 11.75V3.94995C12 3.66662 12.096 3.42895 12.288 3.23695C12.48 3.04495 12.7173 2.94929 13 2.94995H20C20.2833 2.94995 20.521 3.04595 20.713 3.23795C20.905 3.42995 21.0007 3.66729 21 3.94995V8.94995C21 9.23329 20.904 9.47095 20.712 9.66295C20.52 9.85495 20.2827 9.95062 20 9.94995H15L12.85 12.1ZM19.95 21C17.8 21 15.7043 20.5206 13.663 19.562C11.6217 18.6033 9.81333 17.3366 8.238 15.762C6.66267 14.1873 5.396 12.379 4.438 10.337C3.48 8.29495 3.00067 6.19929 3 4.04995C3 3.74995 3.1 3.49995 3.3 3.29995C3.5 3.09995 3.75 2.99995 4.05 2.99995H8.1C8.33333 2.99995 8.54167 3.07495 8.725 3.22495C8.90833 3.37495 9.01667 3.56662 9.05 3.79995L9.7 7.29995C9.73333 7.53329 9.729 7.74595 9.687 7.93795C9.645 8.12995 9.54933 8.30062 9.4 8.44995L7 10.9C7.7 12.1 8.575 13.225 9.625 14.275C10.675 15.325 11.8333 16.2333 13.1 17L15.45 14.65C15.6 14.5 15.796 14.3876 16.038 14.313C16.28 14.2383 16.5173 14.2173 16.75 14.25L20.2 14.95C20.4333 15 20.625 15.1126 20.775 15.288C20.925 15.4633 21 15.6673 21 15.9V19.95C21 20.25 20.9 20.5 20.7 20.7C20.5 20.9 20.25 21 19.95 21Z" fill="white"/>
</svg>
