<svg width="24" height="24" viewBox="0 0 24 24" fill="none" xmlns="http://www.w3.org/2000/svg">
<path d="M19 11.95C19 9.99995 18.3207 8.34595 16.962 6.98795C15.6033 5.62995 13.9493 4.95062 12 4.94995V2.94995C13.25 2.94995 14.421 3.18762 15.513 3.66295C16.605 4.13828 17.555 4.77995 18.363 5.58795C19.171 6.39595 19.8127 7.34595 20.288 8.43795C20.7633 9.52995 21.0007 10.7006 21 11.95H19ZM15 11.95C15 11.1166 14.7083 10.4083 14.125 9.82495C13.5417 9.24162 12.8333 8.94995 12 8.94995V6.94995C13.3833 6.94995 14.5627 7.43762 15.538 8.41295C16.5133 9.38828 17.0007 10.5673 17 11.95H15ZM19.95 21C17.8 21 15.704 20.5206 13.662 19.562C11.62 18.6033 9.81167 17.3366 8.237 15.762C6.66233 14.1873 5.39567 12.379 4.437 10.337C3.47833 8.29495 2.99933 6.19928 3 4.04995C3 3.74995 3.1 3.49995 3.3 3.29995C3.5 3.09995 3.75 2.99995 4.05 2.99995H8.1C8.33333 2.99995 8.54167 3.07495 8.725 3.22495C8.90833 3.37495 9.01667 3.56662 9.05 3.79995L9.7 7.29995C9.73333 7.53328 9.729 7.74595 9.687 7.93795C9.645 8.12995 9.54933 8.30062 9.4 8.44995L7 10.9C7.7 12.1 8.575 13.225 9.625 14.275C10.675 15.325 11.8333 16.2333 13.1 17L15.45 14.65C15.6 14.5 15.796 14.3876 16.038 14.313C16.28 14.2383 16.5173 14.2173 16.75 14.25L20.2 14.95C20.4333 15 20.625 15.1126 20.775 15.288C20.925 15.4633 21 15.6673 21 15.9V19.95C21 20.25 20.9 20.5 20.7 20.7C20.5 20.9 20.25 21 19.95 21Z" fill="white"/>
</svg>
