<svg width="137" height="37" viewBox="0 0 137 37" fill="none" xmlns="http://www.w3.org/2000/svg">
<path d="M125.258 12.0454C125.258 12.0454 126.877 11.4141 126.742 12.947C126.697 13.5783 126.292 15.7879 125.977 18.1775L124.898 25.2566C124.898 25.2566 124.808 26.2937 123.999 26.4741C123.19 26.6541 121.975 25.8429 121.75 25.6625C121.57 25.527 118.378 23.4979 117.254 22.5062C116.939 22.2354 116.579 21.6945 117.299 21.0633L122.02 16.5541C122.56 16.0133 123.099 14.7508 120.851 16.2837L114.555 20.567C114.555 20.567 113.835 21.0183 112.487 20.6125L109.563 19.7104C109.563 19.7104 108.484 19.0341 110.328 18.3579C114.825 16.2387 120.356 14.0745 125.257 12.0454H125.258Z" fill="#D9D9D9"/>
<path opacity="0.25" fill-rule="evenodd" clip-rule="evenodd" d="M118.5 36C128.165 36 136 28.165 136 18.5C136 8.83502 128.165 1 118.5 1C108.835 1 101 8.83502 101 18.5C101 28.165 108.835 36 118.5 36Z" stroke="white" stroke-width="1.5"/>
<path d="M73.8583 19.6166C73.625 19.1416 72.9667 18.7416 72.0917 19.4166C70.9 20.3666 69 20.3666 69 20.3666C69 20.3666 67.1 20.3666 65.9083 19.4166C65.0333 18.7416 64.375 19.1416 64.1417 19.6166C63.725 20.45 64.1917 20.8583 65.25 21.5333C66.1583 22.1166 67.4 22.3333 68.2 22.4166L67.5333 23.0833C66.5833 24.025 65.6667 24.9333 65.0417 25.5666C64.6667 25.95 64.6667 26.5583 65.0417 26.9166L65.1583 27.05C65.5333 27.425 66.15 27.425 66.525 27.05L69 24.5666C69.9583 25.5083 70.8667 26.4166 71.5 27.05C71.875 27.425 72.4833 27.425 72.8667 27.05L72.975 26.9166C73.3583 26.5583 73.3583 25.95 72.975 25.5666L70.4917 23.0833L69.8333 22.4083C70.625 22.3333 71.85 22.1083 72.75 21.5333C73.8083 20.8583 74.275 20.45 73.8583 19.6166ZM69 12.8083C70.15 12.8083 71.0833 13.7416 71.0833 14.8833C71.0833 16.0333 70.15 16.9583 69 16.9583C67.85 16.9583 66.9167 16.0333 66.9167 14.8833C66.9167 13.7416 67.85 12.8083 69 12.8083ZM69 19.1C71.3333 19.1 73.2167 17.2166 73.2167 14.8833C73.2167 13.765 72.7724 12.6924 71.9816 11.9017C71.1909 11.1109 70.1183 10.6666 69 10.6666C67.8817 10.6666 66.8091 11.1109 66.0184 11.9017C65.2276 12.6924 64.7833 13.765 64.7833 14.8833C64.7833 17.2166 66.6667 19.1 69 19.1Z" fill="#D9D9D9"/>
<path opacity="0.25" fill-rule="evenodd" clip-rule="evenodd" d="M68.5 36C78.165 36 86 28.165 86 18.5C86 8.83502 78.165 1 68.5 1C58.835 1 51 8.83502 51 18.5C51 28.165 58.835 36 68.5 36Z" stroke="white" stroke-width="1.5"/>
<path d="M25.6692 24.3175H23.7683C23.0492 24.3175 22.8325 23.735 21.5433 22.445C20.4167 21.3591 19.9408 21.2241 19.6558 21.2241C19.2617 21.2241 19.1542 21.3325 19.1542 21.875V23.585C19.1542 24.0475 19.0042 24.3183 17.7958 24.3183C16.6236 24.2395 15.4868 23.8834 14.4791 23.2792C13.4715 22.6751 12.6218 21.8402 12 20.8433C10.5237 19.0058 9.49642 16.8492 9 14.545C9 14.26 9.10833 14.0016 9.65167 14.0016H11.5517C12.04 14.0016 12.2158 14.2191 12.4075 14.7216C13.33 17.4366 14.9042 19.7983 15.5433 19.7983C15.7883 19.7983 15.895 19.69 15.895 19.0791V16.2825C15.8142 15.0066 15.1367 14.8991 15.1367 14.4375C15.1452 14.3157 15.201 14.202 15.292 14.1206C15.383 14.0392 15.5022 13.9965 15.6242 14.0016H18.6108C19.0192 14.0016 19.1542 14.205 19.1542 14.6933V18.4683C19.1542 18.8758 19.3292 19.0108 19.4525 19.0108C19.6975 19.0108 19.8858 18.8758 20.335 18.4275C21.2978 17.2533 22.0844 15.9451 22.67 14.5441C22.7299 14.3759 22.8433 14.2319 22.9927 14.1341C23.1421 14.0363 23.3194 13.9901 23.4975 14.0025H25.3983C25.9683 14.0025 26.0892 14.2875 25.9683 14.6941C25.277 16.2428 24.4215 17.7129 23.4167 19.0791C23.2117 19.3916 23.13 19.5541 23.4167 19.9208C23.605 20.2058 24.2717 20.7625 24.7192 21.2916C25.3708 21.9416 25.9117 22.6933 26.3208 23.5166C26.4842 24.0466 26.2117 24.3175 25.6692 24.3175Z" fill="#D9D9D9"/>
<path opacity="0.25" fill-rule="evenodd" clip-rule="evenodd" d="M18.5 36C28.165 36 36 28.165 36 18.5C36 8.83502 28.165 1 18.5 1C8.83502 1 1 8.83502 1 18.5C1 28.165 8.83502 36 18.5 36Z" stroke="white" stroke-width="1.5"/>
</svg>
