<svg width="137" height="37" viewBox="0 0 137 37" fill="none" xmlns="http://www.w3.org/2000/svg">
<path d="M125.258 12.0455C125.258 12.0455 126.877 11.4143 126.742 12.9472C126.697 13.5784 126.293 15.788 125.978 18.1776L124.898 25.2568C124.898 25.2568 124.808 26.2938 123.999 26.4743C123.19 26.6543 121.975 25.843 121.75 25.6626C121.57 25.5272 118.378 23.498 117.254 22.5063C116.939 22.2355 116.579 21.6947 117.299 21.0634L122.02 16.5543C122.56 16.0134 123.099 14.7509 120.851 16.2838L114.555 20.5672C114.555 20.5672 113.835 21.0184 112.487 20.6126L109.563 19.7105C109.563 19.7105 108.484 19.0343 110.328 18.358C114.825 16.2388 120.356 14.0747 125.258 12.0455H125.258Z" fill="#D9D9D9"/>
<path opacity="0.25" fill-rule="evenodd" clip-rule="evenodd" d="M118.5 36C128.165 36 136 28.165 136 18.5C136 8.83502 128.165 1 118.5 1C108.835 1 101 8.83502 101 18.5C101 28.165 108.835 36 118.5 36Z" stroke="white" stroke-width="1.5"/>
<path d="M73.8584 19.6167C73.625 19.1417 72.9667 18.7417 72.0917 19.4167C70.9 20.3667 69 20.3667 69 20.3667C69 20.3667 67.1 20.3667 65.9084 19.4167C65.0334 18.7417 64.375 19.1417 64.1417 19.6167C63.725 20.4501 64.1917 20.8584 65.25 21.5334C66.1584 22.1167 67.4 22.3334 68.2 22.4167L67.5334 23.0834C66.5834 24.0251 65.6667 24.9334 65.0417 25.5667C64.6667 25.9501 64.6667 26.5584 65.0417 26.9167L65.1584 27.0501C65.5334 27.4251 66.15 27.4251 66.525 27.0501L69 24.5667C69.9584 25.5084 70.8667 26.4167 71.5 27.0501C71.875 27.4251 72.4834 27.4251 72.8667 27.0501L72.975 26.9167C73.3584 26.5584 73.3584 25.9501 72.975 25.5667L70.4917 23.0834L69.8334 22.4084C70.625 22.3334 71.85 22.1084 72.75 21.5334C73.8084 20.8584 74.275 20.4501 73.8584 19.6167ZM69 12.8084C70.15 12.8084 71.0834 13.7417 71.0834 14.8834C71.0834 16.0334 70.15 16.9584 69 16.9584C67.85 16.9584 66.9167 16.0334 66.9167 14.8834C66.9167 13.7417 67.85 12.8084 69 12.8084ZM69 19.1001C71.3334 19.1001 73.2167 17.2167 73.2167 14.8834C73.2167 13.7651 72.7725 12.6926 71.9817 11.9018C71.1909 11.111 70.1184 10.6667 69 10.6667C67.8817 10.6667 66.8092 11.111 66.0184 11.9018C65.2276 12.6926 64.7834 13.7651 64.7834 14.8834C64.7834 17.2167 66.6667 19.1001 69 19.1001Z" fill="#D9D9D9"/>
<path opacity="0.25" fill-rule="evenodd" clip-rule="evenodd" d="M68.5 36C78.165 36 86 28.165 86 18.5C86 8.83502 78.165 1 68.5 1C58.835 1 51 8.83502 51 18.5C51 28.165 58.835 36 68.5 36Z" stroke="white" stroke-width="1.5"/>
<path d="M25.6692 24.3175H23.7683C23.0492 24.3175 22.8325 23.735 21.5433 22.445C20.4167 21.3591 19.9408 21.2241 19.6558 21.2241C19.2617 21.2241 19.1542 21.3325 19.1542 21.875V23.585C19.1542 24.0475 19.0042 24.3183 17.7958 24.3183C16.6236 24.2395 15.4868 23.8834 14.4791 23.2792C13.4715 22.6751 12.6218 21.8402 12 20.8433C10.5237 19.0058 9.49642 16.8492 9 14.545C9 14.26 9.10833 14.0016 9.65167 14.0016H11.5517C12.04 14.0016 12.2158 14.2191 12.4075 14.7216C13.33 17.4366 14.9042 19.7983 15.5433 19.7983C15.7883 19.7983 15.895 19.69 15.895 19.0791V16.2825C15.8142 15.0066 15.1367 14.8991 15.1367 14.4375C15.1452 14.3157 15.201 14.202 15.292 14.1206C15.383 14.0392 15.5022 13.9965 15.6242 14.0016H18.6108C19.0192 14.0016 19.1542 14.205 19.1542 14.6933V18.4683C19.1542 18.8758 19.3292 19.0108 19.4525 19.0108C19.6975 19.0108 19.8858 18.8758 20.335 18.4275C21.2978 17.2533 22.0844 15.9451 22.67 14.5441C22.7299 14.3759 22.8433 14.2319 22.9927 14.1341C23.1421 14.0363 23.3194 13.9901 23.4975 14.0025H25.3983C25.9683 14.0025 26.0892 14.2875 25.9683 14.6941C25.277 16.2428 24.4215 17.7129 23.4167 19.0791C23.2117 19.3916 23.13 19.5541 23.4167 19.9208C23.605 20.2058 24.2717 20.7625 24.7192 21.2916C25.3708 21.9416 25.9117 22.6933 26.3208 23.5166C26.4842 24.0466 26.2117 24.3175 25.6692 24.3175Z" fill="#D9D9D9"/>
<path opacity="0.25" fill-rule="evenodd" clip-rule="evenodd" d="M18.5 36C28.165 36 36 28.165 36 18.5C36 8.83502 28.165 1 18.5 1C8.83502 1 1 8.83502 1 18.5C1 28.165 8.83502 36 18.5 36Z" stroke="white" stroke-width="1.5"/>
</svg>
