<svg width="16" height="15" viewBox="0 0 16 15" fill="none" xmlns="http://www.w3.org/2000/svg">
<path d="M6.3335 14.6667H3.00016C2.76405 14.6667 2.566 14.5867 2.406 14.4267C2.246 14.2667 2.16627 14.0689 2.16683 13.8334V8.00004H0.750163C0.555718 8.00004 0.423774 7.90976 0.354329 7.72921C0.284885 7.54865 0.326552 7.39587 0.479329 7.27087L7.43766 1.00004C7.59044 0.847263 7.77794 0.770874 8.00016 0.770874C8.22238 0.770874 8.40989 0.847263 8.56266 1.00004L11.3335 3.50004V2.16671C11.3335 1.9306 11.4135 1.73254 11.5735 1.57254C11.7335 1.41254 11.9313 1.33282 12.1668 1.33337H13.0002C13.2363 1.33337 13.4343 1.41337 13.5943 1.57337C13.7543 1.73337 13.8341 1.93115 13.8335 2.16671V5.75004L15.521 7.27087C15.6738 7.39587 15.7154 7.54865 15.646 7.72921C15.5766 7.90976 15.4446 8.00004 15.2502 8.00004H13.8335V13.8334C13.8335 14.0695 13.7535 14.2675 13.5935 14.4275C13.4335 14.5875 13.2357 14.6673 13.0002 14.6667H9.66683V10.5C9.66683 10.2639 9.58683 10.0659 9.42683 9.90587C9.26683 9.74587 9.06905 9.66615 8.8335 9.66671H7.16683C6.93072 9.66671 6.73266 9.74671 6.57266 9.90671C6.41266 10.0667 6.33294 10.2645 6.3335 10.5V14.6667ZM6.3335 6.35421H9.66683C9.66683 5.90976 9.50016 5.54504 9.16683 5.26004C8.8335 4.97504 8.44461 4.83282 8.00016 4.83337C7.55572 4.83337 7.16683 4.97587 6.8335 5.26087C6.50016 5.54587 6.3335 5.91032 6.3335 6.35421Z" fill="#181818"/>
</svg>
