<svg width="1920" height="60" viewBox="0 0 1920 60" fill="none" xmlns="http://www.w3.org/2000/svg">
<rect width="1920" height="60" fill="#D90006"/>
<path d="M321.119 24.8182H322.983L326.224 32.733H326.344L329.585 24.8182H331.45V35H329.988V27.6321H329.893L326.891 34.9851H325.678L322.675 27.6271H322.58V35H321.119V24.8182ZM334.682 29.9886H336.9C337.834 29.9886 338.554 30.2206 339.057 30.6847C339.561 31.1487 339.813 31.7469 339.813 32.4794C339.813 32.9567 339.7 33.3859 339.475 33.767C339.25 34.1482 338.92 34.4498 338.486 34.6719C338.051 34.8906 337.523 35 336.9 35H333.564V27.3636H335.02V33.7173H336.9C337.327 33.7173 337.679 33.6063 337.954 33.3842C338.229 33.1589 338.366 32.8722 338.366 32.5241C338.366 32.1562 338.229 31.8563 337.954 31.6243C337.679 31.389 337.327 31.2713 336.9 31.2713H334.682V29.9886ZM340.897 35V27.3636H342.383V35H340.897ZM348.083 37.8636V27.3636H349.535V28.6016H349.659C349.745 28.4425 349.87 28.2585 350.032 28.0497C350.195 27.8409 350.42 27.6586 350.708 27.5028C350.997 27.3438 351.378 27.2642 351.852 27.2642C352.468 27.2642 353.018 27.42 353.502 27.7315C353.986 28.0431 354.366 28.4922 354.641 29.0788C354.919 29.6655 355.058 30.3714 355.058 31.1967C355.058 32.022 354.921 32.7296 354.646 33.3196C354.371 33.9062 353.993 34.3587 353.512 34.6768C353.032 34.9917 352.483 35.1491 351.867 35.1491C351.403 35.1491 351.023 35.0713 350.728 34.9155C350.436 34.7597 350.208 34.5774 350.042 34.3686C349.876 34.1598 349.749 33.9742 349.659 33.8118H349.57V37.8636H348.083ZM349.54 31.1818C349.54 31.7187 349.618 32.1894 349.774 32.5938C349.929 32.9981 350.155 33.3146 350.45 33.5433C350.745 33.7687 351.106 33.8814 351.534 33.8814C351.978 33.8814 352.349 33.7637 352.647 33.5284C352.945 33.2898 353.171 32.9666 353.323 32.5589C353.479 32.1513 353.557 31.6922 353.557 31.1818C353.557 30.678 353.481 30.2256 353.328 29.8246C353.179 29.4235 352.954 29.107 352.652 28.875C352.354 28.643 351.981 28.527 351.534 28.527C351.103 28.527 350.738 28.638 350.44 28.8601C350.145 29.0821 349.921 29.392 349.769 29.7898C349.616 30.1875 349.54 30.6515 349.54 31.1818ZM358.946 35.169C358.462 35.169 358.025 35.0795 357.634 34.9006C357.243 34.7183 356.933 34.4548 356.704 34.1101C356.479 33.7654 356.366 33.3428 356.366 32.8423C356.366 32.4115 356.449 32.0568 356.615 31.7784C356.78 31.5 357.004 31.2796 357.286 31.1172C357.567 30.9548 357.882 30.8321 358.23 30.7493C358.578 30.6664 358.933 30.6035 359.294 30.5604C359.752 30.5073 360.123 30.4643 360.408 30.4311C360.693 30.3946 360.9 30.3366 361.029 30.2571C361.159 30.1776 361.223 30.0483 361.223 29.8693V29.8345C361.223 29.4003 361.101 29.0639 360.855 28.8253C360.613 28.5866 360.252 28.4673 359.771 28.4673C359.271 28.4673 358.877 28.5784 358.588 28.8004C358.303 29.0192 358.106 29.2628 357.997 29.5312L356.6 29.2131C356.765 28.7491 357.007 28.3745 357.325 28.0895C357.647 27.8011 358.017 27.5923 358.434 27.4631C358.852 27.3305 359.291 27.2642 359.752 27.2642C360.057 27.2642 360.38 27.3007 360.721 27.3736C361.066 27.4432 361.387 27.5724 361.686 27.7614C361.987 27.9503 362.234 28.2204 362.426 28.5717C362.619 28.9197 362.715 29.3722 362.715 29.929V35H361.263V33.956H361.203C361.107 34.1482 360.963 34.3371 360.771 34.5227C360.579 34.7083 360.332 34.8625 360.03 34.9851C359.728 35.1077 359.367 35.169 358.946 35.169ZM359.269 33.9759C359.68 33.9759 360.032 33.8946 360.323 33.7322C360.618 33.5698 360.842 33.3577 360.994 33.0959C361.15 32.8307 361.228 32.5473 361.228 32.2457V31.2614C361.175 31.3144 361.072 31.3641 360.92 31.4105C360.771 31.4536 360.6 31.4917 360.408 31.5249C360.216 31.5547 360.028 31.5829 359.846 31.6094C359.664 31.6326 359.511 31.6525 359.389 31.669C359.1 31.7055 358.837 31.7668 358.598 31.853C358.363 31.9392 358.174 32.0634 358.031 32.2259C357.892 32.3849 357.823 32.5971 357.823 32.8622C357.823 33.2301 357.959 33.5085 358.23 33.6974C358.502 33.883 358.848 33.9759 359.269 33.9759ZM370.586 24.5199L371.202 25.4595C370.974 25.6683 370.714 25.8175 370.422 25.907C370.134 25.9931 369.8 26.0478 369.423 26.071C369.045 26.0909 368.612 26.1091 368.125 26.1257C367.575 26.1423 367.122 26.2616 366.768 26.4837C366.413 26.7024 366.14 27.0272 365.947 27.4581C365.759 27.8857 365.636 28.4226 365.58 29.0689H365.674C365.923 28.5949 366.267 28.2403 366.708 28.005C367.152 27.7696 367.651 27.652 368.205 27.652C368.821 27.652 369.37 27.7928 369.85 28.0746C370.331 28.3563 370.709 28.7689 370.984 29.3125C371.262 29.8527 371.401 30.514 371.401 31.2962C371.401 32.0883 371.255 32.7727 370.964 33.3494C370.675 33.9261 370.268 34.3719 369.741 34.6868C369.217 34.9983 368.599 35.1541 367.886 35.1541C367.174 35.1541 366.552 34.9934 366.022 34.6719C365.495 34.3471 365.086 33.8665 364.794 33.2301C364.506 32.5937 364.362 31.8082 364.362 30.8736V30.1179C364.362 28.3712 364.673 27.0571 365.296 26.1754C365.919 25.2938 366.851 24.8414 368.09 24.8182C368.491 24.8082 368.849 24.8066 369.164 24.8132C369.479 24.8165 369.754 24.8016 369.989 24.7685C370.228 24.732 370.427 24.6491 370.586 24.5199ZM367.891 33.9062C368.306 33.9062 368.662 33.8018 368.96 33.593C369.262 33.3809 369.494 33.081 369.656 32.6932C369.819 32.3054 369.9 31.848 369.9 31.321C369.9 30.804 369.819 30.3648 369.656 30.0036C369.494 29.6423 369.262 29.3672 368.96 29.1783C368.659 28.986 368.297 28.8899 367.876 28.8899C367.565 28.8899 367.286 28.9446 367.041 29.054C366.796 29.16 366.585 29.3175 366.41 29.5263C366.237 29.7351 366.103 29.9903 366.007 30.2919C365.914 30.5902 365.865 30.9332 365.858 31.321C365.858 32.1098 366.039 32.7379 366.4 33.2053C366.764 33.6726 367.262 33.9062 367.891 33.9062ZM376.278 35.1541C375.563 35.1541 374.938 34.9901 374.404 34.6619C373.871 34.3338 373.456 33.8748 373.161 33.2848C372.866 32.6948 372.719 32.0054 372.719 31.2166C372.719 30.4245 372.866 29.7318 373.161 29.1385C373.456 28.5452 373.871 28.0845 374.404 27.7564C374.938 27.4283 375.563 27.2642 376.278 27.2642C376.994 27.2642 377.619 27.4283 378.153 27.7564C378.686 28.0845 379.101 28.5452 379.396 29.1385C379.691 29.7318 379.838 30.4245 379.838 31.2166C379.838 32.0054 379.691 32.6948 379.396 33.2848C379.101 33.8748 378.686 34.3338 378.153 34.6619C377.619 34.9901 376.994 35.1541 376.278 35.1541ZM376.283 33.9062C376.747 33.9062 377.132 33.7836 377.437 33.5384C377.742 33.2931 377.967 32.9666 378.113 32.5589C378.262 32.1513 378.337 31.7022 378.337 31.2116C378.337 30.7244 378.262 30.277 378.113 29.8693C377.967 29.4583 377.742 29.1286 377.437 28.88C377.132 28.6314 376.747 28.5071 376.283 28.5071C375.816 28.5071 375.428 28.6314 375.12 28.88C374.815 29.1286 374.588 29.4583 374.439 29.8693C374.293 30.277 374.22 30.7244 374.22 31.2116C374.22 31.7022 374.293 32.1513 374.439 32.5589C374.588 32.9666 374.815 33.2931 375.12 33.5384C375.428 33.7836 375.816 33.9062 376.283 33.9062ZM380.578 28.6463V27.3636H387.021V28.6463H384.53V35H383.078V28.6463H380.578ZM390.46 35.169C389.976 35.169 389.538 35.0795 389.147 34.9006C388.756 34.7183 388.446 34.4548 388.218 34.1101C387.992 33.7654 387.88 33.3428 387.88 32.8423C387.88 32.4115 387.962 32.0568 388.128 31.7784C388.294 31.5 388.518 31.2796 388.799 31.1172C389.081 30.9548 389.396 30.8321 389.744 30.7493C390.092 30.6664 390.447 30.6035 390.808 30.5604C391.265 30.5073 391.636 30.4643 391.922 30.4311C392.207 30.3946 392.414 30.3366 392.543 30.2571C392.672 30.1776 392.737 30.0483 392.737 29.8693V29.8345C392.737 29.4003 392.614 29.0639 392.369 28.8253C392.127 28.5866 391.766 28.4673 391.285 28.4673C390.785 28.4673 390.39 28.5784 390.102 28.8004C389.817 29.0192 389.62 29.2628 389.51 29.5312L388.113 29.2131C388.279 28.7491 388.521 28.3745 388.839 28.0895C389.161 27.8011 389.53 27.5923 389.948 27.4631C390.365 27.3305 390.805 27.2642 391.265 27.2642C391.57 27.2642 391.893 27.3007 392.235 27.3736C392.579 27.4432 392.901 27.5724 393.199 27.7614C393.501 27.9503 393.748 28.2204 393.94 28.5717C394.132 28.9197 394.228 29.3722 394.228 29.929V35H392.777V33.956H392.717C392.621 34.1482 392.477 34.3371 392.284 34.5227C392.092 34.7083 391.845 34.8625 391.544 34.9851C391.242 35.1077 390.881 35.169 390.46 35.169ZM390.783 33.9759C391.194 33.9759 391.545 33.8946 391.837 33.7322C392.132 33.5698 392.356 33.3577 392.508 33.0959C392.664 32.8307 392.742 32.5473 392.742 32.2457V31.2614C392.689 31.3144 392.586 31.3641 392.434 31.4105C392.284 31.4536 392.114 31.4917 391.922 31.5249C391.729 31.5547 391.542 31.5829 391.36 31.6094C391.177 31.6326 391.025 31.6525 390.902 31.669C390.614 31.7055 390.35 31.7668 390.112 31.853C389.877 31.9392 389.688 32.0634 389.545 32.2259C389.406 32.3849 389.336 32.5971 389.336 32.8622C389.336 33.2301 389.472 33.5085 389.744 33.6974C390.016 33.883 390.362 33.9759 390.783 33.9759ZM399.499 35.1541C398.747 35.1541 398.099 34.9934 397.556 34.6719C397.015 34.3471 396.598 33.8913 396.303 33.3047C396.011 32.7147 395.865 32.0237 395.865 31.2315C395.865 30.4493 396.011 29.7599 396.303 29.1634C396.598 28.5668 397.009 28.1011 397.536 27.7663C398.066 27.4316 398.686 27.2642 399.395 27.2642C399.826 27.2642 400.244 27.3355 400.648 27.478C401.052 27.6205 401.415 27.8442 401.737 28.1491C402.058 28.4541 402.312 28.8501 402.497 29.3374C402.683 29.8213 402.776 30.4096 402.776 31.1023V31.6293H396.705V30.5156H401.319C401.319 30.1245 401.24 29.7782 401.08 29.4766C400.921 29.1716 400.698 28.9313 400.409 28.7557C400.124 28.58 399.789 28.4922 399.405 28.4922C398.987 28.4922 398.623 28.5949 398.311 28.8004C398.003 29.0026 397.764 29.2678 397.595 29.5959C397.43 29.9207 397.347 30.2737 397.347 30.6548V31.5249C397.347 32.0353 397.436 32.4695 397.615 32.8274C397.798 33.1854 398.051 33.4588 398.376 33.6477C398.701 33.8333 399.08 33.9261 399.514 33.9261C399.796 33.9261 400.053 33.8864 400.285 33.8068C400.517 33.724 400.718 33.6013 400.887 33.4389C401.056 33.2765 401.185 33.076 401.274 32.8374L402.681 33.0909C402.569 33.5052 402.366 33.8681 402.075 34.1797C401.786 34.4879 401.423 34.7282 400.986 34.9006C400.552 35.0696 400.056 35.1541 399.499 35.1541ZM408.711 33.1605L411.176 27.3636H412.459L409.262 35H408.159L405.027 27.3636H406.294L408.711 33.1605ZM405.882 27.3636V35H404.425V27.3636H405.882ZM411.579 35V27.3636H413.026V35H411.579ZM418.831 35V24.8182H425.215V26.1406H420.368V29.2429H424.882V30.5604H420.368V33.6776H425.275V35H418.831ZM426.661 35L429.619 31.0923L426.695 27.3636H428.425L430.787 30.5355H431.319V27.3636H432.805V30.5355H433.322L435.684 27.3636H437.414L434.506 31.0923L437.449 35H435.684L433.303 31.8182H432.805V35H431.319V31.8182H430.822L428.425 35H426.661ZM441.951 35.1541C441.198 35.1541 440.55 34.9934 440.007 34.6719C439.467 34.3471 439.049 33.8913 438.754 33.3047C438.462 32.7147 438.316 32.0237 438.316 31.2315C438.316 30.4493 438.462 29.7599 438.754 29.1634C439.049 28.5668 439.46 28.1011 439.987 27.7663C440.517 27.4316 441.137 27.2642 441.846 27.2642C442.277 27.2642 442.695 27.3355 443.099 27.478C443.503 27.6205 443.866 27.8442 444.188 28.1491C444.509 28.4541 444.763 28.8501 444.949 29.3374C445.134 29.8213 445.227 30.4096 445.227 31.1023V31.6293H439.157V30.5156H443.77C443.77 30.1245 443.691 29.7782 443.532 29.4766C443.373 29.1716 443.149 28.9313 442.86 28.7557C442.575 28.58 442.241 28.4922 441.856 28.4922C441.439 28.4922 441.074 28.5949 440.762 28.8004C440.454 29.0026 440.216 29.2678 440.047 29.5959C439.881 29.9207 439.798 30.2737 439.798 30.6548V31.5249C439.798 32.0353 439.887 32.4695 440.066 32.8274C440.249 33.1854 440.502 33.4588 440.827 33.6477C441.152 33.8333 441.531 33.9261 441.966 33.9261C442.247 33.9261 442.504 33.8864 442.736 33.8068C442.968 33.724 443.169 33.6013 443.338 33.4389C443.507 33.2765 443.636 33.076 443.725 32.8374L445.132 33.0909C445.02 33.5052 444.818 33.8681 444.526 34.1797C444.238 34.4879 443.875 34.7282 443.437 34.9006C443.003 35.0696 442.507 35.1541 441.951 35.1541ZM446.131 37.2024V33.7124H446.752C446.911 33.5665 447.045 33.3925 447.155 33.1903C447.267 32.9882 447.362 32.7479 447.438 32.4695C447.518 32.1911 447.584 31.8662 447.637 31.495C447.69 31.1205 447.736 30.6929 447.776 30.2124L448.015 27.3636H453.205V33.7124H454.378V37.2024H452.927V35H447.602V37.2024H446.131ZM448.343 33.7124H451.753V28.6364H449.347L449.188 30.2124C449.112 31.0144 449.016 31.7105 448.9 32.3004C448.784 32.8871 448.598 33.3577 448.343 33.7124ZM461.007 30.5405V31.8281H456.87V30.5405H461.007ZM457.288 27.3636V35H455.831V27.3636H457.288ZM462.046 27.3636V35H460.594V27.3636H462.046ZM467.326 35.1541C466.573 35.1541 465.925 34.9934 465.382 34.6719C464.842 34.3471 464.424 33.8913 464.129 33.3047C463.837 32.7147 463.691 32.0237 463.691 31.2315C463.691 30.4493 463.837 29.7599 464.129 29.1634C464.424 28.5668 464.835 28.1011 465.362 27.7663C465.892 27.4316 466.512 27.2642 467.221 27.2642C467.652 27.2642 468.07 27.3355 468.474 27.478C468.878 27.6205 469.241 27.8442 469.563 28.1491C469.884 28.4541 470.138 28.8501 470.324 29.3374C470.509 29.8213 470.602 30.4096 470.602 31.1023V31.6293H464.532V30.5156H469.145C469.145 30.1245 469.066 29.7782 468.907 29.4766C468.748 29.1716 468.524 28.9313 468.235 28.7557C467.95 28.58 467.616 28.4922 467.231 28.4922C466.814 28.4922 466.449 28.5949 466.137 28.8004C465.829 29.0026 465.591 29.2678 465.422 29.5959C465.256 29.9207 465.173 30.2737 465.173 30.6548V31.5249C465.173 32.0353 465.262 32.4695 465.441 32.8274C465.624 33.1854 465.877 33.4588 466.202 33.6477C466.527 33.8333 466.906 33.9261 467.341 33.9261C467.622 33.9261 467.879 33.8864 468.111 33.8068C468.343 33.724 468.544 33.6013 468.713 33.4389C468.882 33.2765 469.011 33.076 469.1 32.8374L470.507 33.0909C470.395 33.5052 470.193 33.8681 469.901 34.1797C469.613 34.4879 469.25 34.7282 468.812 34.9006C468.378 35.0696 467.882 35.1541 467.326 35.1541ZM472.251 35V27.3636H475.418C476.28 27.3636 476.963 27.5476 477.466 27.9155C477.97 28.2801 478.222 28.7756 478.222 29.402C478.222 29.8494 478.08 30.2041 477.795 30.4659C477.51 30.7277 477.132 30.9034 476.661 30.9929C477.002 31.0327 477.316 31.1354 477.601 31.3011C477.886 31.4635 478.114 31.6823 478.287 31.9574C478.462 32.2325 478.55 32.5606 478.55 32.9418C478.55 33.3461 478.446 33.7041 478.237 34.0156C478.028 34.3239 477.725 34.5658 477.327 34.7415C476.933 34.9138 476.457 35 475.9 35H472.251ZM473.648 33.7571H475.9C476.268 33.7571 476.557 33.6693 476.765 33.4936C476.974 33.3179 477.079 33.0793 477.079 32.7777C477.079 32.4231 476.974 32.1446 476.765 31.9425C476.557 31.737 476.268 31.6342 475.9 31.6342H473.648V33.7571ZM473.648 30.5455H475.433C475.711 30.5455 475.95 30.5057 476.149 30.4261C476.351 30.3466 476.505 30.2339 476.611 30.0881C476.721 29.9389 476.775 29.7633 476.775 29.5611C476.775 29.2661 476.654 29.0357 476.412 28.87C476.171 28.7043 475.839 28.6214 475.418 28.6214H473.648V30.5455ZM485.356 30.5405V31.8281H481.22V30.5405H485.356ZM481.638 27.3636V35H480.181V27.3636H481.638ZM486.395 27.3636V35H484.944V27.3636H486.395ZM491.601 35.1541C490.885 35.1541 490.26 34.9901 489.726 34.6619C489.193 34.3338 488.778 33.8748 488.483 33.2848C488.189 32.6948 488.041 32.0054 488.041 31.2166C488.041 30.4245 488.189 29.7318 488.483 29.1385C488.778 28.5452 489.193 28.0845 489.726 27.7564C490.26 27.4283 490.885 27.2642 491.601 27.2642C492.317 27.2642 492.941 27.4283 493.475 27.7564C494.009 28.0845 494.423 28.5452 494.718 29.1385C495.013 29.7318 495.16 30.4245 495.16 31.2166C495.16 32.0054 495.013 32.6948 494.718 33.2848C494.423 33.8748 494.009 34.3338 493.475 34.6619C492.941 34.9901 492.317 35.1541 491.601 35.1541ZM491.606 33.9062C492.07 33.9062 492.454 33.7836 492.759 33.5384C493.064 33.2931 493.289 32.9666 493.435 32.5589C493.584 32.1513 493.659 31.7022 493.659 31.2116C493.659 30.7244 493.584 30.277 493.435 29.8693C493.289 29.4583 493.064 29.1286 492.759 28.88C492.454 28.6314 492.07 28.5071 491.606 28.5071C491.138 28.5071 490.751 28.6314 490.442 28.88C490.137 29.1286 489.91 29.4583 489.761 29.8693C489.615 30.277 489.542 30.7244 489.542 31.2116C489.542 31.7022 489.615 32.1513 489.761 32.5589C489.91 32.9666 490.137 33.2931 490.442 33.5384C490.751 33.7836 491.138 33.9062 491.606 33.9062ZM497.799 35.0945C497.527 35.0945 497.294 34.9983 497.098 34.8061C496.902 34.6106 496.805 34.3752 496.805 34.1001C496.805 33.8284 496.902 33.5964 497.098 33.4041C497.294 33.2086 497.527 33.1108 497.799 33.1108C498.071 33.1108 498.304 33.2086 498.5 33.4041C498.696 33.5964 498.793 33.8284 498.793 34.1001C498.793 34.2824 498.747 34.4498 498.654 34.6023C498.565 34.7514 498.445 34.8707 498.296 34.9602C498.147 35.0497 497.981 35.0945 497.799 35.0945ZM497.799 29.5362C497.527 29.5362 497.294 29.4384 497.098 29.2429C496.902 29.0473 496.805 28.8137 496.805 28.5419C496.805 28.2701 496.902 28.0381 497.098 27.8459C497.294 27.6503 497.527 27.5526 497.799 27.5526C498.071 27.5526 498.304 27.6503 498.5 27.8459C498.696 28.0381 498.793 28.2701 498.793 28.5419C498.793 28.7242 498.747 28.8916 498.654 29.044C498.565 29.1932 498.445 29.3125 498.296 29.402C498.147 29.4915 497.981 29.5362 497.799 29.5362ZM508.014 35.169C507.229 35.1657 506.558 34.9586 506.001 34.5476C505.444 34.1366 505.018 33.5384 504.723 32.7528C504.428 31.9673 504.281 31.0211 504.281 29.9141C504.281 28.8104 504.428 27.8674 504.723 27.0852C505.021 26.303 505.449 25.7064 506.006 25.2955C506.566 24.8845 507.235 24.679 508.014 24.679C508.793 24.679 509.461 24.8861 510.018 25.3004C510.575 25.7114 511.001 26.308 511.296 27.0902C511.594 27.8691 511.743 28.8104 511.743 29.9141C511.743 31.0244 511.596 31.9723 511.301 32.7578C511.006 33.54 510.58 34.1383 510.023 34.5526C509.466 34.9635 508.797 35.169 508.014 35.169ZM508.014 33.8416C508.704 33.8416 509.242 33.5052 509.63 32.8324C510.021 32.1596 510.217 31.1868 510.217 29.9141C510.217 29.0689 510.127 28.3546 509.948 27.7713C509.773 27.1847 509.519 26.7405 509.188 26.4389C508.86 26.134 508.468 25.9815 508.014 25.9815C507.328 25.9815 506.79 26.3196 506.399 26.9957C506.008 27.6719 505.81 28.6446 505.807 29.9141C505.807 30.7625 505.895 31.4801 506.07 32.0668C506.249 32.6501 506.503 33.0926 506.831 33.3942C507.159 33.6925 507.554 33.8416 508.014 33.8416ZM516.947 35.1392C516.234 35.1392 515.605 35.0166 515.058 34.7713C514.514 34.526 514.088 34.188 513.78 33.7571C513.472 33.3262 513.319 32.8357 513.323 32.2855C513.319 31.8546 513.407 31.4586 513.586 31.0973C513.769 30.7327 514.016 30.4295 514.327 30.1875C514.639 29.9422 514.987 29.7865 515.371 29.7202V29.6605C514.864 29.5379 514.458 29.2661 514.153 28.8452C513.848 28.4242 513.697 27.9403 513.701 27.3935C513.697 26.8731 513.835 26.4091 514.113 26.0014C514.395 25.5904 514.781 25.2673 515.272 25.032C515.762 24.7966 516.321 24.679 516.947 24.679C517.567 24.679 518.12 24.7983 518.608 25.0369C519.098 25.2723 519.484 25.5954 519.766 26.0064C520.048 26.4141 520.19 26.8764 520.194 27.3935C520.19 27.9403 520.034 28.4242 519.726 28.8452C519.418 29.2661 519.017 29.5379 518.523 29.6605V29.7202C518.904 29.7865 519.247 29.9422 519.552 30.1875C519.86 30.4295 520.106 30.7327 520.288 31.0973C520.474 31.4586 520.568 31.8546 520.571 32.2855C520.568 32.8357 520.412 33.3262 520.104 33.7571C519.796 34.188 519.368 34.526 518.821 34.7713C518.278 35.0166 517.653 35.1392 516.947 35.1392ZM516.947 33.8814C517.368 33.8814 517.733 33.8118 518.041 33.6726C518.349 33.5301 518.588 33.3329 518.757 33.081C518.926 32.8258 519.012 32.5275 519.015 32.1861C519.012 31.8314 518.919 31.5182 518.737 31.2464C518.558 30.9747 518.314 30.7609 518.006 30.6051C517.698 30.4493 517.345 30.3714 516.947 30.3714C516.546 30.3714 516.19 30.4493 515.878 30.6051C515.567 30.7609 515.321 30.9747 515.142 31.2464C514.963 31.5182 514.876 31.8314 514.879 32.1861C514.876 32.5275 514.957 32.8258 515.123 33.081C515.292 33.3329 515.532 33.5301 515.843 33.6726C516.155 33.8118 516.523 33.8814 516.947 33.8814ZM516.947 29.1435C517.285 29.1435 517.585 29.0755 517.847 28.9396C518.109 28.8037 518.314 28.6148 518.463 28.3729C518.616 28.1309 518.694 27.8475 518.697 27.5227C518.694 27.2045 518.618 26.9261 518.468 26.6875C518.323 26.4489 518.119 26.2649 517.857 26.1357C517.595 26.0031 517.292 25.9368 516.947 25.9368C516.596 25.9368 516.288 26.0031 516.022 26.1357C515.761 26.2649 515.557 26.4489 515.411 26.6875C515.265 26.9261 515.194 27.2045 515.197 27.5227C515.194 27.8475 515.267 28.1309 515.416 28.3729C515.565 28.6148 515.77 28.8037 516.032 28.9396C516.297 29.0755 516.602 29.1435 516.947 29.1435ZM523.352 33.7372C523.08 33.7372 522.846 33.6411 522.651 33.4489C522.455 33.2533 522.357 33.018 522.357 32.7429C522.357 32.4711 522.455 32.2391 522.651 32.0469C522.846 31.8513 523.08 31.7536 523.352 31.7536C523.624 31.7536 523.857 31.8513 524.053 32.0469C524.248 32.2391 524.346 32.4711 524.346 32.7429C524.346 32.9252 524.3 33.0926 524.207 33.245C524.117 33.3942 523.998 33.5135 523.849 33.603C523.7 33.6925 523.534 33.7372 523.352 33.7372ZM523.352 28.6364C523.08 28.6364 522.846 28.5402 522.651 28.348C522.455 28.1525 522.357 27.9171 522.357 27.642C522.357 27.3703 522.455 27.1383 522.651 26.946C522.846 26.7505 523.08 26.6527 523.352 26.6527C523.624 26.6527 523.857 26.7505 524.053 26.946C524.248 27.1383 524.346 27.3703 524.346 27.642C524.346 27.8243 524.3 27.9917 524.207 28.1442C524.117 28.2933 523.998 28.4126 523.849 28.5021C523.7 28.5916 523.534 28.6364 523.352 28.6364ZM529.862 35.169C529.077 35.1657 528.405 34.9586 527.849 34.5476C527.292 34.1366 526.866 33.5384 526.571 32.7528C526.276 31.9673 526.128 31.0211 526.128 29.9141C526.128 28.8104 526.276 27.8674 526.571 27.0852C526.869 26.303 527.297 25.7064 527.854 25.2955C528.414 24.8845 529.083 24.679 529.862 24.679C530.641 24.679 531.309 24.8861 531.866 25.3004C532.422 25.7114 532.848 26.308 533.143 27.0902C533.442 27.8691 533.591 28.8104 533.591 29.9141C533.591 31.0244 533.443 31.9723 533.148 32.7578C532.853 33.54 532.427 34.1383 531.871 34.5526C531.314 34.9635 530.644 35.169 529.862 35.169ZM529.862 33.8416C530.551 33.8416 531.09 33.5052 531.478 32.8324C531.869 32.1596 532.064 31.1868 532.064 29.9141C532.064 29.0689 531.975 28.3546 531.796 27.7713C531.62 27.1847 531.367 26.7405 531.035 26.4389C530.707 26.134 530.316 25.9815 529.862 25.9815C529.176 25.9815 528.637 26.3196 528.246 26.9957C527.855 27.6719 527.658 28.6446 527.655 29.9141C527.655 30.7625 527.742 31.4801 527.918 32.0668C528.097 32.6501 528.351 33.0926 528.679 33.3942C529.007 33.6925 529.401 33.8416 529.862 33.8416ZM538.899 35.169C538.114 35.1657 537.442 34.9586 536.886 34.5476C536.329 34.1366 535.903 33.5384 535.608 32.7528C535.313 31.9673 535.165 31.0211 535.165 29.9141C535.165 28.8104 535.313 27.8674 535.608 27.0852C535.906 26.303 536.334 25.7064 536.891 25.2955C537.451 24.8845 538.12 24.679 538.899 24.679C539.678 24.679 540.346 24.8861 540.903 25.3004C541.46 25.7114 541.885 26.308 542.18 27.0902C542.479 27.8691 542.628 28.8104 542.628 29.9141C542.628 31.0244 542.48 31.9723 542.185 32.7578C541.89 33.54 541.464 34.1383 540.908 34.5526C540.351 34.9635 539.681 35.169 538.899 35.169ZM538.899 33.8416C539.589 33.8416 540.127 33.5052 540.515 32.8324C540.906 32.1596 541.102 31.1868 541.102 29.9141C541.102 29.0689 541.012 28.3546 540.833 27.7713C540.657 27.1847 540.404 26.7405 540.072 26.4389C539.744 26.134 539.353 25.9815 538.899 25.9815C538.213 25.9815 537.674 26.3196 537.283 26.9957C536.892 27.6719 536.695 28.6446 536.692 29.9141C536.692 30.7625 536.78 31.4801 536.955 32.0668C537.134 32.6501 537.388 33.0926 537.716 33.3942C538.044 33.6925 538.438 33.8416 538.899 33.8416ZM548.911 29.2628V30.5554H544.396V29.2628H548.911ZM550.462 35V33.8864L553.907 30.3168C554.275 29.929 554.578 29.5893 554.817 29.2976C555.059 29.0026 555.24 28.7225 555.359 28.4574C555.478 28.1922 555.538 27.9105 555.538 27.6122C555.538 27.2741 555.458 26.9825 555.299 26.7372C555.14 26.4886 554.923 26.2981 554.648 26.1655C554.373 26.0296 554.063 25.9616 553.718 25.9616C553.354 25.9616 553.035 26.0362 552.764 26.1854C552.492 26.3345 552.283 26.545 552.137 26.8168C551.991 27.0885 551.919 27.4067 551.919 27.7713H550.452C550.452 27.1515 550.594 26.6096 550.879 26.1456C551.164 25.6816 551.556 25.322 552.053 25.0668C552.55 24.8082 553.115 24.679 553.748 24.679C554.388 24.679 554.951 24.8066 555.438 25.0618C555.929 25.3137 556.312 25.6584 556.587 26.0959C556.862 26.5301 556.999 27.0206 556.999 27.5675C556.999 27.9453 556.928 28.3149 556.786 28.6761C556.646 29.0374 556.403 29.4401 556.055 29.8842C555.707 30.325 555.223 30.8603 554.603 31.4901L552.58 33.608V33.6825H557.164V35H550.462ZM559.048 35V33.8864L562.493 30.3168C562.861 29.929 563.164 29.5893 563.403 29.2976C563.645 29.0026 563.825 28.7225 563.945 28.4574C564.064 28.1922 564.124 27.9105 564.124 27.6122C564.124 27.2741 564.044 26.9825 563.885 26.7372C563.726 26.4886 563.509 26.2981 563.234 26.1655C562.959 26.0296 562.649 25.9616 562.304 25.9616C561.94 25.9616 561.621 26.0362 561.35 26.1854C561.078 26.3345 560.869 26.545 560.723 26.8168C560.577 27.0885 560.504 27.4067 560.504 27.7713H559.038C559.038 27.1515 559.18 26.6096 559.465 26.1456C559.75 25.6816 560.142 25.322 560.639 25.0668C561.136 24.8082 561.701 24.679 562.334 24.679C562.974 24.679 563.537 24.8066 564.024 25.0618C564.515 25.3137 564.898 25.6584 565.173 26.0959C565.448 26.5301 565.585 27.0206 565.585 27.5675C565.585 27.9453 565.514 28.3149 565.372 28.6761C565.232 29.0374 564.989 29.4401 564.641 29.8842C564.293 30.325 563.809 30.8603 563.189 31.4901L561.166 33.608V33.6825H565.749V35H559.048ZM568.633 33.7372C568.361 33.7372 568.128 33.6411 567.932 33.4489C567.736 33.2533 567.639 33.018 567.639 32.7429C567.639 32.4711 567.736 32.2391 567.932 32.0469C568.128 31.8513 568.361 31.7536 568.633 31.7536C568.905 31.7536 569.138 31.8513 569.334 32.0469C569.53 32.2391 569.627 32.4711 569.627 32.7429C569.627 32.9252 569.581 33.0926 569.488 33.245C569.399 33.3942 569.279 33.5135 569.13 33.603C568.981 33.6925 568.815 33.7372 568.633 33.7372ZM568.633 28.6364C568.361 28.6364 568.128 28.5402 567.932 28.348C567.736 28.1525 567.639 27.9171 567.639 27.642C567.639 27.3703 567.736 27.1383 567.932 26.946C568.128 26.7505 568.361 26.6527 568.633 26.6527C568.905 26.6527 569.138 26.7505 569.334 26.946C569.53 27.1383 569.627 27.3703 569.627 27.642C569.627 27.8243 569.581 27.9917 569.488 28.1442C569.399 28.2933 569.279 28.4126 569.13 28.5021C568.981 28.5916 568.815 28.6364 568.633 28.6364ZM575.143 35.169C574.358 35.1657 573.687 34.9586 573.13 34.5476C572.573 34.1366 572.147 33.5384 571.852 32.7528C571.557 31.9673 571.41 31.0211 571.41 29.9141C571.41 28.8104 571.557 27.8674 571.852 27.0852C572.15 26.303 572.578 25.7064 573.135 25.2955C573.695 24.8845 574.364 24.679 575.143 24.679C575.922 24.679 576.59 24.8861 577.147 25.3004C577.704 25.7114 578.13 26.308 578.425 27.0902C578.723 27.8691 578.872 28.8104 578.872 29.9141C578.872 31.0244 578.724 31.9723 578.43 32.7578C578.135 33.54 577.709 34.1383 577.152 34.5526C576.595 34.9635 575.925 35.169 575.143 35.169ZM575.143 33.8416C575.833 33.8416 576.371 33.5052 576.759 32.8324C577.15 32.1596 577.346 31.1868 577.346 29.9141C577.346 29.0689 577.256 28.3546 577.077 27.7713C576.902 27.1847 576.648 26.7405 576.317 26.4389C575.988 26.134 575.597 25.9815 575.143 25.9815C574.457 25.9815 573.919 26.3196 573.528 26.9957C573.136 27.6719 572.939 28.6446 572.936 29.9141C572.936 30.7625 573.024 31.4801 573.199 32.0668C573.378 32.6501 573.632 33.0926 573.96 33.3942C574.288 33.6925 574.683 33.8416 575.143 33.8416ZM584.18 35.169C583.395 35.1657 582.724 34.9586 582.167 34.5476C581.61 34.1366 581.184 33.5384 580.889 32.7528C580.594 31.9673 580.447 31.0211 580.447 29.9141C580.447 28.8104 580.594 27.8674 580.889 27.0852C581.188 26.303 581.615 25.7064 582.172 25.2955C582.732 24.8845 583.402 24.679 584.18 24.679C584.959 24.679 585.627 24.8861 586.184 25.3004C586.741 25.7114 587.167 26.308 587.462 27.0902C587.76 27.8691 587.909 28.8104 587.909 29.9141C587.909 31.0244 587.762 31.9723 587.467 32.7578C587.172 33.54 586.746 34.1383 586.189 34.5526C585.632 34.9635 584.963 35.169 584.18 35.169ZM584.18 33.8416C584.87 33.8416 585.408 33.5052 585.796 32.8324C586.187 32.1596 586.383 31.1868 586.383 29.9141C586.383 29.0689 586.293 28.3546 586.114 27.7713C585.939 27.1847 585.685 26.7405 585.354 26.4389C585.026 26.134 584.634 25.9815 584.18 25.9815C583.494 25.9815 582.956 26.3196 582.565 26.9957C582.174 27.6719 581.976 28.6446 581.973 29.9141C581.973 30.7625 582.061 31.4801 582.237 32.0668C582.415 32.6501 582.669 33.0926 582.997 33.3942C583.325 33.6925 583.72 33.8416 584.18 33.8416ZM590.303 35.0945C590.031 35.0945 589.797 34.9983 589.602 34.8061C589.406 34.6106 589.309 34.3752 589.309 34.1001C589.309 33.8284 589.406 33.5964 589.602 33.4041C589.797 33.2086 590.031 33.1108 590.303 33.1108C590.575 33.1108 590.808 33.2086 591.004 33.4041C591.199 33.5964 591.297 33.8284 591.297 34.1001C591.297 34.2824 591.251 34.4498 591.158 34.6023C591.069 34.7514 590.949 34.8707 590.8 34.9602C590.651 35.0497 590.485 35.0945 590.303 35.0945ZM604.908 24.8182V35H603.377V26.1307H598.584V35H597.053V24.8182H604.908ZM610.355 35.1541C609.639 35.1541 609.014 34.9901 608.48 34.6619C607.947 34.3338 607.532 33.8748 607.237 33.2848C606.942 32.6948 606.795 32.0054 606.795 31.2166C606.795 30.4245 606.942 29.7318 607.237 29.1385C607.532 28.5452 607.947 28.0845 608.48 27.7564C609.014 27.4283 609.639 27.2642 610.355 27.2642C611.07 27.2642 611.695 27.4283 612.229 27.7564C612.762 28.0845 613.177 28.5452 613.472 29.1385C613.767 29.7318 613.914 30.4245 613.914 31.2166C613.914 32.0054 613.767 32.6948 613.472 33.2848C613.177 33.8748 612.762 34.3338 612.229 34.6619C611.695 34.9901 611.07 35.1541 610.355 35.1541ZM610.36 33.9062C610.824 33.9062 611.208 33.7836 611.513 33.5384C611.818 33.2931 612.043 32.9666 612.189 32.5589C612.338 32.1513 612.413 31.7022 612.413 31.2116C612.413 30.7244 612.338 30.277 612.189 29.8693C612.043 29.4583 611.818 29.1286 611.513 28.88C611.208 28.6314 610.824 28.5071 610.36 28.5071C609.892 28.5071 609.504 28.6314 609.196 28.88C608.891 29.1286 608.664 29.4583 608.515 29.8693C608.369 30.277 608.296 30.7244 608.296 31.2116C608.296 31.7022 608.369 32.1513 608.515 32.5589C608.664 32.9666 608.891 33.2931 609.196 33.5384C609.504 33.7836 609.892 33.9062 610.36 33.9062ZM620.127 35V28.6314H618.298C617.864 28.6314 617.526 28.7325 617.284 28.9347C617.042 29.1368 616.921 29.402 616.921 29.7301C616.921 30.0549 617.032 30.3168 617.254 30.5156C617.479 30.7112 617.794 30.8089 618.199 30.8089H620.56V32.0121H618.199C617.635 32.0121 617.148 31.9193 616.737 31.7337C616.329 31.5447 616.014 31.2779 615.792 30.9332C615.574 30.5885 615.464 30.1809 615.464 29.7102C615.464 29.2296 615.577 28.8153 615.802 28.4673C616.031 28.116 616.357 27.8442 616.782 27.652C617.209 27.4598 617.715 27.3636 618.298 27.3636H621.525V35H620.127ZM615.116 35L617.269 31.142H618.79L616.637 35H615.116ZM623.503 35V27.3636H626.67C627.532 27.3636 628.215 27.5476 628.718 27.9155C629.222 28.2801 629.474 28.7756 629.474 29.402C629.474 29.8494 629.332 30.2041 629.047 30.4659C628.761 30.7277 628.384 30.9034 627.913 30.9929C628.254 31.0327 628.568 31.1354 628.853 31.3011C629.138 31.4635 629.366 31.6823 629.539 31.9574C629.714 32.2325 629.802 32.5606 629.802 32.9418C629.802 33.3461 629.698 33.7041 629.489 34.0156C629.28 34.3239 628.977 34.5658 628.579 34.7415C628.185 34.9138 627.709 35 627.152 35H623.503ZM624.9 33.7571H627.152C627.52 33.7571 627.809 33.6693 628.017 33.4936C628.226 33.3179 628.331 33.0793 628.331 32.7777C628.331 32.4231 628.226 32.1446 628.017 31.9425C627.809 31.737 627.52 31.6342 627.152 31.6342H624.9V33.7571ZM624.9 30.5455H626.685C626.963 30.5455 627.202 30.5057 627.401 30.4261C627.603 30.3466 627.757 30.2339 627.863 30.0881C627.973 29.9389 628.027 29.7633 628.027 29.5611C628.027 29.2661 627.906 29.0357 627.664 28.87C627.422 28.7043 627.091 28.6214 626.67 28.6214H624.9V30.5455ZM632.89 32.9169L636.255 27.3636H637.856V35H636.4V29.4418L633.049 35H631.433V27.3636H632.89V32.9169ZM639.253 35L639.248 33.7124H639.522C639.734 33.7124 639.911 33.6676 640.054 33.5781C640.199 33.4853 640.319 33.3295 640.412 33.1108C640.504 32.892 640.576 32.5904 640.625 32.206C640.675 31.8182 640.712 31.331 640.735 30.7443L640.869 27.3636H646.199V35H644.742V28.6463H642.246L642.127 31.2415C642.097 31.8712 642.032 32.4214 641.933 32.892C641.837 33.3627 641.696 33.7554 641.51 34.0703C641.325 34.3819 641.086 34.6155 640.794 34.7713C640.503 34.9238 640.148 35 639.73 35H639.253ZM649.638 32.9169L653.003 27.3636H654.604V35H653.148V29.4418L649.797 35H648.181V27.3636H649.638V32.9169ZM659.819 35.1541C659.08 35.1541 658.444 34.9867 657.91 34.652C657.38 34.3139 656.972 33.8482 656.687 33.255C656.402 32.6617 656.26 31.9822 656.26 31.2166C656.26 30.4411 656.406 29.7566 656.697 29.1634C656.989 28.5668 657.4 28.1011 657.93 27.7663C658.461 27.4316 659.085 27.2642 659.805 27.2642C660.385 27.2642 660.902 27.3719 661.356 27.5874C661.81 27.7995 662.176 28.0978 662.454 28.4822C662.736 28.8667 662.903 29.3158 662.956 29.8295H661.51C661.43 29.4716 661.248 29.1634 660.963 28.9048C660.681 28.6463 660.303 28.517 659.829 28.517C659.415 28.517 659.052 28.6264 658.741 28.8452C658.432 29.0606 658.192 29.3688 658.02 29.7699C657.847 30.1676 657.761 30.6383 657.761 31.1818C657.761 31.7386 657.846 32.2192 658.015 32.6236C658.184 33.0279 658.422 33.3411 658.731 33.5632C659.042 33.7853 659.408 33.8963 659.829 33.8963C660.111 33.8963 660.366 33.8449 660.595 33.7422C660.827 33.6361 661.021 33.4853 661.177 33.2898C661.336 33.0942 661.447 32.8589 661.51 32.5838H662.956C662.903 33.0777 662.743 33.5185 662.474 33.9062C662.206 34.294 661.846 34.599 661.395 34.821C660.948 35.0431 660.423 35.1541 659.819 35.1541ZM665.665 29.9886H667.882C668.817 29.9886 669.536 30.2206 670.04 30.6847C670.544 31.1487 670.795 31.7469 670.795 32.4794C670.795 32.9567 670.683 33.3859 670.457 33.767C670.232 34.1482 669.902 34.4498 669.468 34.6719C669.034 34.8906 668.505 35 667.882 35H664.546V27.3636H666.003V33.7173H667.882C668.31 33.7173 668.661 33.6063 668.936 33.3842C669.211 33.1589 669.349 32.8722 669.349 32.5241C669.349 32.1562 669.211 31.8563 668.936 31.6243C668.661 31.389 668.31 31.2713 667.882 31.2713H665.665V29.9886ZM676.167 35V27.3636H679.334C680.196 27.3636 680.879 27.5476 681.382 27.9155C681.886 28.2801 682.138 28.7756 682.138 29.402C682.138 29.8494 681.996 30.2041 681.711 30.4659C681.426 30.7277 681.048 30.9034 680.577 30.9929C680.918 31.0327 681.232 31.1354 681.517 31.3011C681.802 31.4635 682.03 31.6823 682.203 31.9574C682.378 32.2325 682.466 32.5606 682.466 32.9418C682.466 33.3461 682.362 33.7041 682.153 34.0156C681.944 34.3239 681.641 34.5658 681.243 34.7415C680.849 34.9138 680.373 35 679.816 35H676.167ZM677.564 33.7571H679.816C680.184 33.7571 680.473 33.6693 680.681 33.4936C680.89 33.3179 680.995 33.0793 680.995 32.7777C680.995 32.4231 680.89 32.1446 680.681 31.9425C680.473 31.737 680.184 31.6342 679.816 31.6342H677.564V33.7571ZM677.564 30.5455H679.349C679.627 30.5455 679.866 30.5057 680.065 30.4261C680.267 30.3466 680.421 30.2339 680.527 30.0881C680.637 29.9389 680.691 29.7633 680.691 29.5611C680.691 29.2661 680.57 29.0357 680.328 28.87C680.087 28.7043 679.755 28.6214 679.334 28.6214H677.564V30.5455ZM687.314 35.1541C686.598 35.1541 685.973 34.9901 685.439 34.6619C684.906 34.3338 684.491 33.8748 684.196 33.2848C683.901 32.6948 683.754 32.0054 683.754 31.2166C683.754 30.4245 683.901 29.7318 684.196 29.1385C684.491 28.5452 684.906 28.0845 685.439 27.7564C685.973 27.4283 686.598 27.2642 687.314 27.2642C688.029 27.2642 688.654 27.4283 689.188 27.7564C689.721 28.0845 690.136 28.5452 690.431 29.1385C690.726 29.7318 690.873 30.4245 690.873 31.2166C690.873 32.0054 690.726 32.6948 690.431 33.2848C690.136 33.8748 689.721 34.3338 689.188 34.6619C688.654 34.9901 688.029 35.1541 687.314 35.1541ZM687.319 33.9062C687.783 33.9062 688.167 33.7836 688.472 33.5384C688.777 33.2931 689.002 32.9666 689.148 32.5589C689.297 32.1513 689.372 31.7022 689.372 31.2116C689.372 30.7244 689.297 30.277 689.148 29.8693C689.002 29.4583 688.777 29.1286 688.472 28.88C688.167 28.6314 687.783 28.5071 687.319 28.5071C686.851 28.5071 686.463 28.6314 686.155 28.88C685.85 29.1286 685.623 29.4583 685.474 29.8693C685.328 30.277 685.255 30.7244 685.255 31.2116C685.255 31.7022 685.328 32.1513 685.474 32.5589C685.623 32.9666 685.85 33.2931 686.155 33.5384C686.463 33.7836 686.851 33.9062 687.319 33.9062ZM692.532 35V27.3636H698.762V35H697.305V28.6463H693.979V35H692.532ZM700.749 37.8636V27.3636H702.201V28.6016H702.325C702.411 28.4425 702.536 28.2585 702.698 28.0497C702.861 27.8409 703.086 27.6586 703.374 27.5028C703.663 27.3438 704.044 27.2642 704.518 27.2642C705.134 27.2642 705.684 27.42 706.168 27.7315C706.652 28.0431 707.032 28.4922 707.307 29.0788C707.585 29.6655 707.724 30.3714 707.724 31.1967C707.724 32.022 707.587 32.7296 707.312 33.3196C707.037 33.9062 706.659 34.3587 706.178 34.6768C705.698 34.9917 705.149 35.1491 704.533 35.1491C704.069 35.1491 703.689 35.0713 703.394 34.9155C703.103 34.7597 702.874 34.5774 702.708 34.3686C702.542 34.1598 702.415 33.9742 702.325 33.8118H702.236V37.8636H700.749ZM702.206 31.1818C702.206 31.7187 702.284 32.1894 702.44 32.5938C702.595 32.9981 702.821 33.3146 703.116 33.5433C703.411 33.7687 703.772 33.8814 704.2 33.8814C704.644 33.8814 705.015 33.7637 705.313 33.5284C705.612 33.2898 705.837 32.9666 705.989 32.5589C706.145 32.1513 706.223 31.6922 706.223 31.1818C706.223 30.678 706.147 30.2256 705.994 29.8246C705.845 29.4235 705.62 29.107 705.318 28.875C705.02 28.643 704.647 28.527 704.2 28.527C703.769 28.527 703.404 28.638 703.106 28.8601C702.811 29.0821 702.587 29.392 702.435 29.7898C702.282 30.1875 702.206 30.6515 702.206 31.1818ZM712.607 35.1541C711.891 35.1541 711.266 34.9901 710.732 34.6619C710.199 34.3338 709.784 33.8748 709.489 33.2848C709.194 32.6948 709.047 32.0054 709.047 31.2166C709.047 30.4245 709.194 29.7318 709.489 29.1385C709.784 28.5452 710.199 28.0845 710.732 27.7564C711.266 27.4283 711.891 27.2642 712.607 27.2642C713.322 27.2642 713.947 27.4283 714.481 27.7564C715.014 28.0845 715.429 28.5452 715.724 29.1385C716.019 29.7318 716.166 30.4245 716.166 31.2166C716.166 32.0054 716.019 32.6948 715.724 33.2848C715.429 33.8748 715.014 34.3338 714.481 34.6619C713.947 34.9901 713.322 35.1541 712.607 35.1541ZM712.612 33.9062C713.076 33.9062 713.46 33.7836 713.765 33.5384C714.07 33.2931 714.295 32.9666 714.441 32.5589C714.59 32.1513 714.665 31.7022 714.665 31.2116C714.665 30.7244 714.59 30.277 714.441 29.8693C714.295 29.4583 714.07 29.1286 713.765 28.88C713.46 28.6314 713.076 28.5071 712.612 28.5071C712.144 28.5071 711.756 28.6314 711.448 28.88C711.143 29.1286 710.916 29.4583 710.767 29.8693C710.621 30.277 710.548 30.7244 710.548 31.2116C710.548 31.7022 710.621 32.1513 710.767 32.5589C710.916 32.9666 711.143 33.2931 711.448 33.5384C711.756 33.7836 712.144 33.9062 712.612 33.9062ZM721.042 35.1541C720.303 35.1541 719.667 34.9867 719.133 34.652C718.603 34.3139 718.195 33.8482 717.91 33.255C717.625 32.6617 717.482 31.9822 717.482 31.2166C717.482 30.4411 717.628 29.7566 717.92 29.1634C718.212 28.5668 718.623 28.1011 719.153 27.7663C719.683 27.4316 720.308 27.2642 721.027 27.2642C721.607 27.2642 722.124 27.3719 722.578 27.5874C723.032 27.7995 723.399 28.0978 723.677 28.4822C723.959 28.8667 724.126 29.3158 724.179 29.8295H722.732C722.653 29.4716 722.471 29.1634 722.186 28.9048C721.904 28.6463 721.526 28.517 721.052 28.517C720.638 28.517 720.275 28.6264 719.963 28.8452C719.655 29.0606 719.415 29.3688 719.242 29.7699C719.07 30.1676 718.984 30.6383 718.984 31.1818C718.984 31.7386 719.068 32.2192 719.237 32.6236C719.406 33.0279 719.645 33.3411 719.953 33.5632C720.265 33.7853 720.631 33.8963 721.052 33.8963C721.334 33.8963 721.589 33.8449 721.818 33.7422C722.05 33.6361 722.244 33.4853 722.399 33.2898C722.558 33.0942 722.669 32.8589 722.732 32.5838H724.179C724.126 33.0777 723.965 33.5185 723.697 33.9062C723.428 34.294 723.069 34.599 722.618 34.821C722.171 35.0431 721.645 35.1541 721.042 35.1541ZM726.887 29.9886H729.105C730.039 29.9886 730.759 30.2206 731.262 30.6847C731.766 31.1487 732.018 31.7469 732.018 32.4794C732.018 32.9567 731.905 33.3859 731.68 33.767C731.455 34.1482 731.125 34.4498 730.691 34.6719C730.257 34.8906 729.728 35 729.105 35H725.769V27.3636H727.225V33.7173H729.105C729.532 33.7173 729.884 33.6063 730.159 33.3842C730.434 33.1589 730.571 32.8722 730.571 32.5241C730.571 32.1562 730.434 31.8563 730.159 31.6243C729.884 31.389 729.532 31.2713 729.105 31.2713H726.887V29.9886ZM733.102 35V27.3636H734.588V35H733.102ZM738.209 32.0717V31.9773C738.216 31.3608 738.277 30.8703 738.393 30.5057C738.512 30.1411 738.681 29.8461 738.9 29.6207C739.119 29.3954 739.382 29.1899 739.691 29.0043C739.889 28.8783 740.068 28.7375 740.227 28.5817C740.387 28.4259 740.512 28.2469 740.605 28.0447C740.698 27.8426 740.744 27.6188 740.744 27.3736C740.744 27.0786 740.675 26.8234 740.536 26.608C740.396 26.3925 740.211 26.2268 739.979 26.1108C739.75 25.9915 739.495 25.9318 739.213 25.9318C738.958 25.9318 738.714 25.9848 738.482 26.0909C738.25 26.197 738.058 26.3627 737.906 26.5881C737.753 26.8101 737.665 27.0968 737.642 27.4482H736.131C736.154 26.8516 736.305 26.3478 736.583 25.9368C736.862 25.5225 737.23 25.2093 737.687 24.9972C738.148 24.785 738.656 24.679 739.213 24.679C739.823 24.679 740.357 24.7933 740.814 25.022C741.271 25.2474 741.626 25.5639 741.878 25.9716C742.133 26.3759 742.261 26.8482 742.261 27.3885C742.261 27.7597 742.203 28.0945 742.087 28.3928C741.971 28.6877 741.805 28.9512 741.59 29.1832C741.378 29.4152 741.122 29.6207 740.824 29.7997C740.542 29.9754 740.314 30.1577 740.138 30.3466C739.966 30.5355 739.84 30.7592 739.76 31.0178C739.681 31.2763 739.637 31.5961 739.631 31.9773V32.0717H738.209ZM738.96 35.0945C738.688 35.0945 738.454 34.9983 738.259 34.8061C738.063 34.6106 737.965 34.3752 737.965 34.1001C737.965 33.8284 738.063 33.5964 738.259 33.4041C738.454 33.2086 738.688 33.1108 738.96 33.1108C739.228 33.1108 739.46 33.2086 739.656 33.4041C739.855 33.5964 739.954 33.8284 739.954 34.1001C739.954 34.2824 739.908 34.4498 739.815 34.6023C739.725 34.7514 739.606 34.8707 739.457 34.9602C739.308 35.0497 739.142 35.0945 738.96 35.0945ZM751.169 35.1392C750.486 35.1392 749.876 35.0215 749.339 34.7862C748.806 34.5509 748.383 34.2244 748.071 33.8068C747.763 33.3859 747.597 32.8987 747.574 32.3452H749.135C749.155 32.6468 749.256 32.9086 749.439 33.1307C749.624 33.3494 749.866 33.5185 750.164 33.6378C750.463 33.7571 750.794 33.8168 751.159 33.8168C751.56 33.8168 751.914 33.7472 752.223 33.608C752.534 33.4687 752.778 33.2749 752.953 33.0263C753.129 32.7744 753.217 32.4844 753.217 32.1562C753.217 31.8149 753.129 31.5149 752.953 31.2564C752.781 30.9946 752.528 30.7891 752.193 30.6399C751.861 30.4908 751.46 30.4162 750.99 30.4162H750.13V29.1634H750.99C751.368 29.1634 751.699 29.0954 751.984 28.9595C752.272 28.8236 752.498 28.6347 752.66 28.3928C752.823 28.1475 752.904 27.8608 752.904 27.5327C752.904 27.2178 752.833 26.9444 752.69 26.7124C752.551 26.477 752.352 26.2931 752.093 26.1605C751.838 26.0279 751.537 25.9616 751.189 25.9616C750.857 25.9616 750.547 26.023 750.259 26.1456C749.974 26.2649 749.742 26.4373 749.563 26.6626C749.384 26.8847 749.288 27.1515 749.275 27.4631H747.788C747.805 26.9129 747.967 26.429 748.275 26.0114C748.587 25.5937 748.998 25.2673 749.508 25.032C750.019 24.7966 750.585 24.679 751.208 24.679C751.861 24.679 752.425 24.8066 752.899 25.0618C753.376 25.3137 753.744 25.6501 754.002 26.071C754.264 26.492 754.394 26.9527 754.39 27.4531C754.394 28.0232 754.234 28.5071 753.913 28.9048C753.595 29.3026 753.171 29.5694 752.64 29.7053V29.7848C753.316 29.8875 753.84 30.156 754.211 30.5902C754.586 31.0244 754.771 31.563 754.768 32.206C754.771 32.7661 754.616 33.2682 754.301 33.7124C753.989 34.1565 753.563 34.5062 753.023 34.7614C752.483 35.0133 751.865 35.1392 751.169 35.1392ZM756.667 35V27.3636H759.834C760.696 27.3636 761.379 27.5476 761.882 27.9155C762.386 28.2801 762.638 28.7756 762.638 29.402C762.638 29.8494 762.496 30.2041 762.211 30.4659C761.926 30.7277 761.548 30.9034 761.077 30.9929C761.418 31.0327 761.732 31.1354 762.017 31.3011C762.302 31.4635 762.53 31.6823 762.703 31.9574C762.878 32.2325 762.966 32.5606 762.966 32.9418C762.966 33.3461 762.862 33.7041 762.653 34.0156C762.444 34.3239 762.141 34.5658 761.743 34.7415C761.349 34.9138 760.873 35 760.316 35H756.667ZM758.064 33.7571H760.316C760.684 33.7571 760.973 33.6693 761.181 33.4936C761.39 33.3179 761.495 33.0793 761.495 32.7777C761.495 32.4231 761.39 32.1446 761.181 31.9425C760.973 31.737 760.684 31.6342 760.316 31.6342H758.064V33.7571ZM758.064 30.5455H759.849C760.127 30.5455 760.366 30.5057 760.565 30.4261C760.767 30.3466 760.921 30.2339 761.027 30.0881C761.137 29.9389 761.191 29.7633 761.191 29.5611C761.191 29.2661 761.07 29.0357 760.828 28.87C760.587 28.7043 760.255 28.6214 759.834 28.6214H758.064V30.5455ZM767.814 35.1541C767.098 35.1541 766.473 34.9901 765.939 34.6619C765.406 34.3338 764.991 33.8748 764.696 33.2848C764.401 32.6948 764.254 32.0054 764.254 31.2166C764.254 30.4245 764.401 29.7318 764.696 29.1385C764.991 28.5452 765.406 28.0845 765.939 27.7564C766.473 27.4283 767.098 27.2642 767.814 27.2642C768.529 27.2642 769.154 27.4283 769.688 27.7564C770.221 28.0845 770.636 28.5452 770.931 29.1385C771.226 29.7318 771.373 30.4245 771.373 31.2166C771.373 32.0054 771.226 32.6948 770.931 33.2848C770.636 33.8748 770.221 34.3338 769.688 34.6619C769.154 34.9901 768.529 35.1541 767.814 35.1541ZM767.819 33.9062C768.283 33.9062 768.667 33.7836 768.972 33.5384C769.277 33.2931 769.502 32.9666 769.648 32.5589C769.797 32.1513 769.872 31.7022 769.872 31.2116C769.872 30.7244 769.797 30.277 769.648 29.8693C769.502 29.4583 769.277 29.1286 768.972 28.88C768.667 28.6314 768.283 28.5071 767.819 28.5071C767.351 28.5071 766.963 28.6314 766.655 28.88C766.35 29.1286 766.123 29.4583 765.974 29.8693C765.828 30.277 765.755 30.7244 765.755 31.2116C765.755 31.7022 765.828 32.1513 765.974 32.5589C766.123 32.9666 766.35 33.2931 766.655 33.5384C766.963 33.7836 767.351 33.9062 767.819 33.9062ZM778.208 30.5405V31.8281H774.072V30.5405H778.208ZM774.489 27.3636V35H773.032V27.3636H774.489ZM779.247 27.3636V35H777.795V27.3636H779.247ZM782.692 32.9169L786.058 27.3636H787.659V35H786.202V29.4418L782.851 35H781.236V27.3636H782.692V32.9169ZM788.71 28.6463V27.3636H795.154V28.6463H792.663V35H791.211V28.6463H788.71ZM799.662 35.1541C798.909 35.1541 798.261 34.9934 797.718 34.6719C797.177 34.3471 796.76 33.8913 796.465 33.3047C796.173 32.7147 796.027 32.0237 796.027 31.2315C796.027 30.4493 796.173 29.7599 796.465 29.1634C796.76 28.5668 797.171 28.1011 797.698 27.7663C798.228 27.4316 798.848 27.2642 799.557 27.2642C799.988 27.2642 800.406 27.3355 800.81 27.478C801.214 27.6205 801.577 27.8442 801.899 28.1491C802.22 28.4541 802.474 28.8501 802.659 29.3374C802.845 29.8213 802.938 30.4096 802.938 31.1023V31.6293H796.868V30.5156H801.481C801.481 30.1245 801.402 29.7782 801.243 29.4766C801.083 29.1716 800.86 28.9313 800.571 28.7557C800.286 28.58 799.952 28.4922 799.567 28.4922C799.15 28.4922 798.785 28.5949 798.473 28.8004C798.165 29.0026 797.926 29.2678 797.757 29.5959C797.592 29.9207 797.509 30.2737 797.509 30.6548V31.5249C797.509 32.0353 797.598 32.4695 797.777 32.8274C797.96 33.1854 798.213 33.4588 798.538 33.6477C798.863 33.8333 799.242 33.9261 799.676 33.9261C799.958 33.9261 800.215 33.8864 800.447 33.8068C800.679 33.724 800.88 33.6013 801.049 33.4389C801.218 33.2765 801.347 33.076 801.436 32.8374L802.843 33.0909C802.731 33.5052 802.529 33.8681 802.237 34.1797C801.949 34.4879 801.586 34.7282 801.148 34.9006C800.714 35.0696 800.218 35.1541 799.662 35.1541ZM808.292 35V27.3636H814.522V35H813.065V28.6463H809.739V35H808.292ZM816.509 37.8636V27.3636H817.961V28.6016H818.085C818.171 28.4425 818.296 28.2585 818.458 28.0497C818.62 27.8409 818.846 27.6586 819.134 27.5028C819.422 27.3438 819.804 27.2642 820.278 27.2642C820.894 27.2642 821.444 27.42 821.928 27.7315C822.412 28.0431 822.791 28.4922 823.067 29.0788C823.345 29.6655 823.484 30.3714 823.484 31.1967C823.484 32.022 823.347 32.7296 823.072 33.3196C822.796 33.9062 822.419 34.3587 821.938 34.6768C821.457 34.9917 820.909 35.1491 820.292 35.1491C819.828 35.1491 819.449 35.0713 819.154 34.9155C818.862 34.7597 818.634 34.5774 818.468 34.3686C818.302 34.1598 818.175 33.9742 818.085 33.8118H817.996V37.8636H816.509ZM817.966 31.1818C817.966 31.7187 818.044 32.1894 818.199 32.5938C818.355 32.9981 818.581 33.3146 818.876 33.5433C819.171 33.7687 819.532 33.8814 819.959 33.8814C820.403 33.8814 820.775 33.7637 821.073 33.5284C821.371 33.2898 821.597 32.9666 821.749 32.5589C821.905 32.1513 821.983 31.6922 821.983 31.1818C821.983 30.678 821.907 30.2256 821.754 29.8246C821.605 29.4235 821.38 29.107 821.078 28.875C820.78 28.643 820.407 28.527 819.959 28.527C819.528 28.527 819.164 28.638 818.866 28.8601C818.571 29.0821 818.347 29.392 818.194 29.7898C818.042 30.1875 817.966 30.6515 817.966 31.1818ZM829.704 35V28.6314H827.874C827.44 28.6314 827.102 28.7325 826.86 28.9347C826.618 29.1368 826.497 29.402 826.497 29.7301C826.497 30.0549 826.608 30.3168 826.83 30.5156C827.055 30.7112 827.37 30.8089 827.775 30.8089H830.136V32.0121H827.775C827.211 32.0121 826.724 31.9193 826.313 31.7337C825.905 31.5447 825.59 31.2779 825.368 30.9332C825.15 30.5885 825.04 30.1809 825.04 29.7102C825.04 29.2296 825.153 28.8153 825.378 28.4673C825.607 28.116 825.934 27.8442 826.358 27.652C826.785 27.4598 827.291 27.3636 827.874 27.3636H831.101V35H829.704ZM824.692 35L826.845 31.142H828.366L826.214 35H824.692ZM837.365 33.1605L839.831 27.3636H841.113L837.917 35H836.813L833.681 27.3636H834.949L837.365 33.1605ZM834.536 27.3636V35H833.079V27.3636H834.536ZM840.233 35V27.3636H841.68V35H840.233ZM846.878 35.1541C846.162 35.1541 845.537 34.9901 845.004 34.6619C844.47 34.3338 844.056 33.8748 843.761 33.2848C843.466 32.6948 843.318 32.0054 843.318 31.2166C843.318 30.4245 843.466 29.7318 843.761 29.1385C844.056 28.5452 844.47 28.0845 845.004 27.7564C845.537 27.4283 846.162 27.2642 846.878 27.2642C847.594 27.2642 848.219 27.4283 848.752 27.7564C849.286 28.0845 849.7 28.5452 849.995 29.1385C850.29 29.7318 850.438 30.4245 850.438 31.2166C850.438 32.0054 850.29 32.6948 849.995 33.2848C849.7 33.8748 849.286 34.3338 848.752 34.6619C848.219 34.9901 847.594 35.1541 846.878 35.1541ZM846.883 33.9062C847.347 33.9062 847.731 33.7836 848.036 33.5384C848.341 33.2931 848.567 32.9666 848.713 32.5589C848.862 32.1513 848.936 31.7022 848.936 31.2116C848.936 30.7244 848.862 30.277 848.713 29.8693C848.567 29.4583 848.341 29.1286 848.036 28.88C847.731 28.6314 847.347 28.5071 846.883 28.5071C846.416 28.5071 846.028 28.6314 845.72 28.88C845.415 29.1286 845.188 29.4583 845.039 29.8693C844.893 30.277 844.82 30.7244 844.82 31.2116C844.82 31.7022 844.893 32.1513 845.039 32.5589C845.188 32.9666 845.415 33.2931 845.72 33.5384C846.028 33.7836 846.416 33.9062 846.883 33.9062ZM859.019 35.1541C858.28 35.1541 857.643 34.9867 857.11 34.652C856.579 34.3139 856.172 33.8482 855.887 33.255C855.602 32.6617 855.459 31.9822 855.459 31.2166C855.459 30.4411 855.605 29.7566 855.896 29.1634C856.188 28.5668 856.599 28.1011 857.129 27.7663C857.66 27.4316 858.285 27.2642 859.004 27.2642C859.584 27.2642 860.101 27.3719 860.555 27.5874C861.009 27.7995 861.375 28.0978 861.654 28.4822C861.935 28.8667 862.103 29.3158 862.156 29.8295H860.709C860.629 29.4716 860.447 29.1634 860.162 28.9048C859.88 28.6463 859.503 28.517 859.029 28.517C858.614 28.517 858.251 28.6264 857.94 28.8452C857.632 29.0606 857.391 29.3688 857.219 29.7699C857.047 30.1676 856.96 30.6383 856.96 31.1818C856.96 31.7386 857.045 32.2192 857.214 32.6236C857.383 33.0279 857.622 33.3411 857.93 33.5632C858.241 33.7853 858.608 33.8963 859.029 33.8963C859.31 33.8963 859.566 33.8449 859.794 33.7422C860.026 33.6361 860.22 33.4853 860.376 33.2898C860.535 33.0942 860.646 32.8589 860.709 32.5838H862.156C862.103 33.0777 861.942 33.5185 861.673 33.9062C861.405 34.294 861.045 34.599 860.595 34.821C860.147 35.0431 859.622 35.1541 859.019 35.1541ZM867.037 35.1541C866.284 35.1541 865.636 34.9934 865.093 34.6719C864.552 34.3471 864.135 33.8913 863.84 33.3047C863.548 32.7147 863.402 32.0237 863.402 31.2315C863.402 30.4493 863.548 29.7599 863.84 29.1634C864.135 28.5668 864.546 28.1011 865.073 27.7663C865.603 27.4316 866.223 27.2642 866.932 27.2642C867.363 27.2642 867.781 27.3355 868.185 27.478C868.589 27.6205 868.952 27.8442 869.274 28.1491C869.595 28.4541 869.849 28.8501 870.034 29.3374C870.22 29.8213 870.313 30.4096 870.313 31.1023V31.6293H864.243V30.5156H868.856C868.856 30.1245 868.777 29.7782 868.618 29.4766C868.458 29.1716 868.235 28.9313 867.946 28.7557C867.661 28.58 867.327 28.4922 866.942 28.4922C866.525 28.4922 866.16 28.5949 865.848 28.8004C865.54 29.0026 865.301 29.2678 865.132 29.5959C864.967 29.9207 864.884 30.2737 864.884 30.6548V31.5249C864.884 32.0353 864.973 32.4695 865.152 32.8274C865.335 33.1854 865.588 33.4588 865.913 33.6477C866.238 33.8333 866.617 33.9261 867.051 33.9261C867.333 33.9261 867.59 33.8864 867.822 33.8068C868.054 33.724 868.255 33.6013 868.424 33.4389C868.593 33.2765 868.722 33.076 868.811 32.8374L870.218 33.0909C870.106 33.5052 869.904 33.8681 869.612 34.1797C869.324 34.4879 868.961 34.7282 868.523 34.9006C868.089 35.0696 867.593 35.1541 867.037 35.1541ZM873.419 32.9169L876.785 27.3636H878.385V35H876.929V29.4418L873.578 35H871.962V27.3636H873.419V32.9169ZM876.148 24.7784H877.371C877.371 25.3385 877.172 25.7943 876.775 26.1456C876.38 26.4936 875.847 26.6676 875.174 26.6676C874.504 26.6676 873.972 26.4936 873.578 26.1456C873.184 25.7943 872.986 25.3385 872.986 24.7784H874.204C874.204 25.027 874.277 25.2474 874.423 25.4396C874.569 25.6286 874.819 25.723 875.174 25.723C875.522 25.723 875.77 25.6286 875.92 25.4396C876.072 25.2507 876.148 25.0303 876.148 24.7784ZM886.514 27.3636V35H885.062V27.3636H886.514ZM885.883 30.9084V32.1911C885.654 32.2839 885.412 32.3667 885.157 32.4396C884.902 32.5092 884.633 32.5639 884.351 32.6037C884.07 32.6435 883.776 32.6634 883.471 32.6634C882.527 32.6634 881.776 32.433 881.219 31.9723C880.662 31.5083 880.384 30.799 880.384 29.8445V27.3487H881.831V29.8445C881.831 30.2057 881.897 30.4991 882.03 30.7244C882.162 30.9498 882.351 31.1155 882.596 31.2216C882.842 31.3277 883.133 31.3807 883.471 31.3807C883.919 31.3807 884.331 31.3393 884.709 31.2564C885.09 31.1702 885.482 31.0542 885.883 30.9084ZM890.714 35.169C890.23 35.169 889.792 35.0795 889.401 34.9006C889.01 34.7183 888.7 34.4548 888.472 34.1101C888.246 33.7654 888.134 33.3428 888.134 32.8423C888.134 32.4115 888.216 32.0568 888.382 31.7784C888.548 31.5 888.772 31.2796 889.053 31.1172C889.335 30.9548 889.65 30.8321 889.998 30.7493C890.346 30.6664 890.701 30.6035 891.062 30.5604C891.519 30.5073 891.89 30.4643 892.175 30.4311C892.46 30.3946 892.668 30.3366 892.797 30.2571C892.926 30.1776 892.991 30.0483 892.991 29.8693V29.8345C892.991 29.4003 892.868 29.0639 892.623 28.8253C892.381 28.5866 892.02 28.4673 891.539 28.4673C891.039 28.4673 890.644 28.5784 890.356 28.8004C890.071 29.0192 889.874 29.2628 889.764 29.5312L888.367 29.2131C888.533 28.7491 888.775 28.3745 889.093 28.0895C889.415 27.8011 889.784 27.5923 890.202 27.4631C890.619 27.3305 891.058 27.2642 891.519 27.2642C891.824 27.2642 892.147 27.3007 892.489 27.3736C892.833 27.4432 893.155 27.5724 893.453 27.7614C893.755 27.9503 894.002 28.2204 894.194 28.5717C894.386 28.9197 894.482 29.3722 894.482 29.929V35H893.031V33.956H892.971C892.875 34.1482 892.731 34.3371 892.538 34.5227C892.346 34.7083 892.099 34.8625 891.798 34.9851C891.496 35.1077 891.135 35.169 890.714 35.169ZM891.037 33.9759C891.448 33.9759 891.799 33.8946 892.091 33.7322C892.386 33.5698 892.61 33.3577 892.762 33.0959C892.918 32.8307 892.996 32.5473 892.996 32.2457V31.2614C892.943 31.3144 892.84 31.3641 892.688 31.4105C892.538 31.4536 892.368 31.4917 892.175 31.5249C891.983 31.5547 891.796 31.5829 891.614 31.6094C891.431 31.6326 891.279 31.6525 891.156 31.669C890.868 31.7055 890.604 31.7668 890.366 31.853C890.13 31.9392 889.942 32.0634 889.799 32.2259C889.66 32.3849 889.59 32.5971 889.59 32.8622C889.59 33.2301 889.726 33.5085 889.998 33.6974C890.27 33.883 890.616 33.9759 891.037 33.9759ZM899.679 35.1541C898.94 35.1541 898.303 34.9867 897.77 34.652C897.239 34.3139 896.832 33.8482 896.547 33.255C896.262 32.6617 896.119 31.9822 896.119 31.2166C896.119 30.4411 896.265 29.7566 896.557 29.1634C896.848 28.5668 897.259 28.1011 897.79 27.7663C898.32 27.4316 898.945 27.2642 899.664 27.2642C900.244 27.2642 900.761 27.3719 901.215 27.5874C901.669 27.7995 902.035 28.0978 902.314 28.4822C902.595 28.8667 902.763 29.3158 902.816 29.8295H901.369C901.29 29.4716 901.107 29.1634 900.822 28.9048C900.541 28.6463 900.163 28.517 899.689 28.517C899.274 28.517 898.912 28.6264 898.6 28.8452C898.292 29.0606 898.051 29.3688 897.879 29.7699C897.707 30.1676 897.621 30.6383 897.621 31.1818C897.621 31.7386 897.705 32.2192 897.874 32.6236C898.043 33.0279 898.282 33.3411 898.59 33.5632C898.902 33.7853 899.268 33.8963 899.689 33.8963C899.97 33.8963 900.226 33.8449 900.454 33.7422C900.686 33.6361 900.88 33.4853 901.036 33.2898C901.195 33.0942 901.306 32.8589 901.369 32.5838H902.816C902.763 33.0777 902.602 33.5185 902.334 33.9062C902.065 34.294 901.706 34.599 901.255 34.821C900.807 35.0431 900.282 35.1541 899.679 35.1541ZM906.28 24.8182L906.151 32.0717H904.773L904.644 24.8182H906.28ZM905.464 35.0945C905.189 35.0945 904.954 34.9983 904.759 34.8061C904.563 34.6106 904.467 34.3752 904.47 34.1001C904.467 33.8284 904.563 33.5964 904.759 33.4041C904.954 33.2086 905.189 33.1108 905.464 33.1108C905.733 33.1108 905.965 33.2086 906.161 33.4041C906.356 33.5964 906.455 33.8284 906.459 34.1001C906.455 34.2824 906.407 34.4498 906.315 34.6023C906.225 34.7514 906.106 34.8707 905.957 34.9602C905.808 35.0497 905.643 35.0945 905.464 35.0945Z" fill="white"/>
<path d="M1289.93 33.3693V26.4886H1291.49V33.3693H1289.93ZM1287.27 30.7095V29.1484H1294.15V30.7095H1287.27ZM1296.31 35L1300.65 26.429V26.3594H1295.62V24.8182H1302.55V26.3942L1298.23 35H1296.31ZM1304.63 29.9091C1304.63 28.6662 1304.79 27.5244 1305.12 26.4837C1305.45 25.4396 1305.94 24.4751 1306.59 23.5902H1308.29C1308.04 23.9183 1307.8 24.321 1307.58 24.7983C1307.37 25.2723 1307.17 25.7926 1307.01 26.3594C1306.85 26.9228 1306.73 27.5078 1306.63 28.1143C1306.55 28.7209 1306.5 29.3191 1306.5 29.9091C1306.5 30.6946 1306.58 31.4901 1306.73 32.2955C1306.89 33.1009 1307.11 33.8482 1307.38 34.5376C1307.65 35.2237 1307.95 35.7855 1308.29 36.223H1306.59C1305.94 35.3381 1305.45 34.3752 1305.12 33.3345C1304.79 32.2905 1304.63 31.1487 1304.63 29.9091ZM1313.29 35.1392C1312.55 35.1392 1311.89 35.0149 1311.32 34.7663C1310.75 34.5178 1310.3 34.178 1309.98 33.7472C1309.66 33.313 1309.5 32.8208 1309.5 32.2706C1309.5 31.843 1309.59 31.4503 1309.78 31.0923C1309.97 30.7344 1310.22 30.4361 1310.54 30.1974C1310.87 29.9555 1311.23 29.8014 1311.63 29.7351V29.6655C1311.1 29.5495 1310.68 29.2827 1310.35 28.8651C1310.03 28.4441 1309.87 27.9586 1309.88 27.4084C1309.87 26.8847 1310.02 26.4174 1310.31 26.0064C1310.61 25.5954 1311.01 25.2723 1311.53 25.0369C1312.04 24.7983 1312.63 24.679 1313.29 24.679C1313.94 24.679 1314.52 24.7983 1315.03 25.0369C1315.55 25.2723 1315.95 25.5954 1316.25 26.0064C1316.54 26.4174 1316.69 26.8847 1316.69 27.4084C1316.69 27.9586 1316.53 28.4441 1316.2 28.8651C1315.88 29.2827 1315.46 29.5495 1314.94 29.6655V29.7351C1315.34 29.8014 1315.7 29.9555 1316.02 30.1974C1316.34 30.4361 1316.59 30.7344 1316.78 31.0923C1316.98 31.4503 1317.07 31.843 1317.07 32.2706C1317.07 32.8208 1316.91 33.313 1316.58 33.7472C1316.26 34.178 1315.81 34.5178 1315.24 34.7663C1314.67 35.0149 1314.02 35.1392 1313.29 35.1392ZM1313.29 33.7173C1313.67 33.7173 1314 33.6527 1314.28 33.5234C1314.56 33.3909 1314.78 33.2053 1314.94 32.9666C1315.09 32.728 1315.17 32.4529 1315.18 32.1413C1315.17 31.8165 1315.09 31.5298 1314.92 31.2812C1314.76 31.0294 1314.54 30.8321 1314.25 30.6896C1313.97 30.5471 1313.65 30.4759 1313.29 30.4759C1312.92 30.4759 1312.6 30.5471 1312.31 30.6896C1312.03 30.8321 1311.8 31.0294 1311.64 31.2812C1311.47 31.5298 1311.4 31.8165 1311.4 32.1413C1311.4 32.4529 1311.47 32.728 1311.63 32.9666C1311.78 33.2019 1312 33.3859 1312.28 33.5185C1312.57 33.651 1312.9 33.7173 1313.29 33.7173ZM1313.29 29.0788C1313.6 29.0788 1313.87 29.0159 1314.11 28.8899C1314.36 28.764 1314.55 28.5883 1314.68 28.3629C1314.82 28.1375 1314.9 27.8774 1314.9 27.5824C1314.9 27.2907 1314.83 27.0355 1314.69 26.8168C1314.55 26.5947 1314.36 26.424 1314.12 26.3047C1313.88 26.1821 1313.6 26.1207 1313.29 26.1207C1312.97 26.1207 1312.68 26.1821 1312.44 26.3047C1312.2 26.424 1312.01 26.5947 1311.87 26.8168C1311.74 27.0355 1311.67 27.2907 1311.68 27.5824C1311.67 27.8774 1311.74 28.1375 1311.88 28.3629C1312.02 28.585 1312.21 28.7607 1312.45 28.8899C1312.69 29.0159 1312.97 29.0788 1313.29 29.0788ZM1322.47 35.1939C1321.65 35.1939 1320.95 34.9867 1320.36 34.5724C1319.78 34.1548 1319.33 33.5533 1319.01 32.7678C1318.7 31.9789 1318.55 31.0294 1318.55 29.919C1318.55 28.8087 1318.71 27.8641 1319.02 27.0852C1319.33 26.303 1319.78 25.7064 1320.37 25.2955C1320.95 24.8845 1321.65 24.679 1322.47 24.679C1323.28 24.679 1323.99 24.8845 1324.57 25.2955C1325.16 25.7064 1325.61 26.303 1325.92 27.0852C1326.23 27.8674 1326.39 28.812 1326.39 29.919C1326.39 31.0327 1326.23 31.9839 1325.92 32.7727C1325.61 33.5582 1325.16 34.1581 1324.57 34.5724C1323.99 34.9867 1323.29 35.1939 1322.47 35.1939ZM1322.47 33.6378C1323.11 33.6378 1323.61 33.3246 1323.98 32.6982C1324.35 32.0684 1324.53 31.142 1324.53 29.919C1324.53 29.1103 1324.45 28.4309 1324.28 27.8807C1324.11 27.3305 1323.87 26.9162 1323.56 26.6378C1323.25 26.3561 1322.89 26.2152 1322.47 26.2152C1321.84 26.2152 1321.34 26.5301 1320.97 27.1598C1320.6 27.7862 1320.41 28.706 1320.41 29.919C1320.41 30.7311 1320.49 31.4138 1320.65 31.9673C1320.82 32.5208 1321.06 32.9384 1321.37 33.2202C1321.68 33.4986 1322.04 33.6378 1322.47 33.6378ZM1331.81 35.1939C1330.99 35.1939 1330.29 34.9867 1329.7 34.5724C1329.12 34.1548 1328.67 33.5533 1328.35 32.7678C1328.04 31.9789 1327.88 31.0294 1327.88 29.919C1327.89 28.8087 1328.05 27.8641 1328.36 27.0852C1328.67 26.303 1329.12 25.7064 1329.7 25.2955C1330.29 24.8845 1330.99 24.679 1331.81 24.679C1332.62 24.679 1333.32 24.8845 1333.91 25.2955C1334.5 25.7064 1334.95 26.303 1335.26 27.0852C1335.57 27.8674 1335.73 28.812 1335.73 29.919C1335.73 31.0327 1335.57 31.9839 1335.26 32.7727C1334.95 33.5582 1334.5 34.1581 1333.91 34.5724C1333.33 34.9867 1332.63 35.1939 1331.81 35.1939ZM1331.81 33.6378C1332.44 33.6378 1332.95 33.3246 1333.31 32.6982C1333.68 32.0684 1333.87 31.142 1333.87 29.919C1333.87 29.1103 1333.79 28.4309 1333.62 27.8807C1333.45 27.3305 1333.21 26.9162 1332.9 26.6378C1332.59 26.3561 1332.23 26.2152 1331.81 26.2152C1331.17 26.2152 1330.67 26.5301 1330.31 27.1598C1329.94 27.7862 1329.75 28.706 1329.75 29.919C1329.75 30.7311 1329.83 31.4138 1329.99 31.9673C1330.16 32.5208 1330.4 32.9384 1330.71 33.2202C1331.02 33.4986 1331.38 33.6378 1331.81 33.6378ZM1340.61 29.9091C1340.61 31.1487 1340.45 32.2905 1340.12 33.3345C1339.79 34.3752 1339.3 35.3381 1338.64 36.223H1336.95C1337.2 35.8949 1337.44 35.4938 1337.65 35.0199C1337.87 34.5459 1338.06 34.0256 1338.22 33.4588C1338.38 32.892 1338.51 32.3054 1338.6 31.6989C1338.69 31.0923 1338.74 30.4957 1338.74 29.9091C1338.74 29.1236 1338.66 28.3281 1338.5 27.5227C1338.34 26.7173 1338.13 25.9699 1337.86 25.2805C1337.59 24.5911 1337.29 24.0277 1336.95 23.5902H1338.64C1339.3 24.4751 1339.79 25.4396 1340.12 26.4837C1340.45 27.5244 1340.61 28.6662 1340.61 29.9091ZM1350.51 24.8182V35H1348.66V26.6129H1348.6L1346.22 28.1342V26.4439L1348.75 24.8182H1350.51ZM1353.09 35V33.6676L1356.63 30.2024C1356.96 29.861 1357.24 29.5578 1357.47 29.2926C1357.7 29.0275 1357.86 28.7706 1357.98 28.522C1358.09 28.2734 1358.15 28.0083 1358.15 27.7266C1358.15 27.4051 1358.07 27.13 1357.93 26.9013C1357.78 26.6693 1357.58 26.4903 1357.33 26.3643C1357.07 26.2384 1356.78 26.1754 1356.46 26.1754C1356.12 26.1754 1355.83 26.245 1355.58 26.3842C1355.32 26.5201 1355.13 26.714 1354.99 26.9659C1354.85 27.2178 1354.79 27.5178 1354.79 27.8658H1353.03C1353.03 27.2195 1353.18 26.6577 1353.47 26.1804C1353.77 25.7031 1354.17 25.3336 1354.69 25.0717C1355.21 24.8099 1355.81 24.679 1356.48 24.679C1357.16 24.679 1357.76 24.8066 1358.28 25.0618C1358.8 25.317 1359.2 25.6667 1359.48 26.1108C1359.77 26.5549 1359.92 27.062 1359.92 27.6321C1359.92 28.0133 1359.84 28.3878 1359.7 28.7557C1359.55 29.1236 1359.29 29.5312 1358.93 29.9787C1358.56 30.4261 1358.05 30.968 1357.39 31.6044L1355.64 33.3892V33.4588H1360.07V35H1353.09ZM1365.44 35.1392C1364.72 35.1392 1364.09 35.0166 1363.53 34.7713C1362.98 34.526 1362.54 34.1847 1362.22 33.7472C1361.9 33.3097 1361.73 32.8042 1361.71 32.2308H1363.58C1363.59 32.5059 1363.68 32.7462 1363.85 32.9517C1364.01 33.1539 1364.24 33.3113 1364.51 33.424C1364.79 33.5367 1365.09 33.593 1365.43 33.593C1365.8 33.593 1366.12 33.5301 1366.4 33.4041C1366.69 33.2749 1366.91 33.0959 1367.07 32.8672C1367.22 32.6385 1367.3 32.375 1367.3 32.0767C1367.3 31.7685 1367.22 31.4967 1367.06 31.2614C1366.9 31.026 1366.66 30.8421 1366.35 30.7095C1366.05 30.5769 1365.68 30.5107 1365.25 30.5107H1364.35V29.0888H1365.25C1365.61 29.0888 1365.92 29.0275 1366.18 28.9048C1366.45 28.7822 1366.66 28.6098 1366.81 28.3878C1366.96 28.1624 1367.04 27.9022 1367.04 27.6072C1367.04 27.3189 1366.97 27.0687 1366.84 26.8565C1366.71 26.6411 1366.53 26.4737 1366.29 26.3544C1366.05 26.2351 1365.78 26.1754 1365.46 26.1754C1365.15 26.1754 1364.86 26.2318 1364.59 26.3445C1364.33 26.4571 1364.12 26.6179 1363.95 26.8267C1363.79 27.0322 1363.7 27.2775 1363.69 27.5625H1361.92C1361.93 26.9924 1362.1 26.492 1362.41 26.0611C1362.73 25.6269 1363.15 25.2888 1363.68 25.0469C1364.22 24.8016 1364.81 24.679 1365.47 24.679C1366.15 24.679 1366.74 24.8066 1367.24 25.0618C1367.74 25.3137 1368.13 25.6534 1368.41 26.081C1368.68 26.5085 1368.82 26.9808 1368.82 27.4979C1368.82 28.0713 1368.65 28.5518 1368.31 28.9396C1367.98 29.3274 1367.53 29.581 1366.98 29.7003V29.7798C1367.7 29.8793 1368.25 30.1444 1368.63 30.5753C1369.01 31.0028 1369.2 31.5348 1369.2 32.1712C1369.2 32.7412 1369.04 33.2517 1368.71 33.7024C1368.39 34.1499 1367.95 34.5012 1367.38 34.7564C1366.82 35.0116 1366.17 35.1392 1365.44 35.1392ZM1375.55 29.1683V30.6499H1370.97V29.1683H1375.55ZM1380.98 35.1392C1380.27 35.1392 1379.63 35.0166 1379.08 34.7713C1378.52 34.526 1378.08 34.1847 1377.76 33.7472C1377.44 33.3097 1377.27 32.8042 1377.25 32.2308H1379.12C1379.14 32.5059 1379.23 32.7462 1379.39 32.9517C1379.56 33.1539 1379.78 33.3113 1380.06 33.424C1380.33 33.5367 1380.64 33.593 1380.98 33.593C1381.34 33.593 1381.67 33.5301 1381.95 33.4041C1382.23 33.2749 1382.45 33.0959 1382.61 32.8672C1382.77 32.6385 1382.85 32.375 1382.84 32.0767C1382.85 31.7685 1382.77 31.4967 1382.61 31.2614C1382.44 31.026 1382.21 30.8421 1381.9 30.7095C1381.59 30.5769 1381.23 30.5107 1380.8 30.5107H1379.9V29.0888H1380.8C1381.15 29.0888 1381.46 29.0275 1381.73 28.9048C1381.99 28.7822 1382.2 28.6098 1382.36 28.3878C1382.51 28.1624 1382.58 27.9022 1382.58 27.6072C1382.58 27.3189 1382.52 27.0687 1382.39 26.8565C1382.26 26.6411 1382.07 26.4737 1381.83 26.3544C1381.6 26.2351 1381.32 26.1754 1381 26.1754C1380.69 26.1754 1380.4 26.2318 1380.14 26.3445C1379.87 26.4571 1379.66 26.6179 1379.5 26.8267C1379.34 27.0322 1379.25 27.2775 1379.24 27.5625H1377.46C1377.48 26.9924 1377.64 26.492 1377.96 26.0611C1378.28 25.6269 1378.7 25.2888 1379.23 25.0469C1379.76 24.8016 1380.35 24.679 1381.01 24.679C1381.69 24.679 1382.28 24.8066 1382.78 25.0618C1383.29 25.3137 1383.68 25.6534 1383.95 26.081C1384.23 26.5085 1384.37 26.9808 1384.37 27.4979C1384.37 28.0713 1384.2 28.5518 1383.86 28.9396C1383.52 29.3274 1383.08 29.581 1382.53 29.7003V29.7798C1383.24 29.8793 1383.79 30.1444 1384.17 30.5753C1384.56 31.0028 1384.75 31.5348 1384.74 32.1712C1384.74 32.7412 1384.58 33.2517 1384.26 33.7024C1383.93 34.1499 1383.49 34.5012 1382.92 34.7564C1382.36 35.0116 1381.71 35.1392 1380.98 35.1392ZM1390.1 35.1392C1389.39 35.1392 1388.75 35.0166 1388.19 34.7713C1387.64 34.526 1387.2 34.1847 1386.88 33.7472C1386.56 33.3097 1386.39 32.8042 1386.37 32.2308H1388.24C1388.26 32.5059 1388.35 32.7462 1388.51 32.9517C1388.68 33.1539 1388.9 33.3113 1389.17 33.424C1389.45 33.5367 1389.76 33.593 1390.1 33.593C1390.46 33.593 1390.79 33.5301 1391.07 33.4041C1391.35 33.2749 1391.57 33.0959 1391.73 32.8672C1391.89 32.6385 1391.97 32.375 1391.96 32.0767C1391.97 31.7685 1391.89 31.4967 1391.72 31.2614C1391.56 31.026 1391.33 30.8421 1391.02 30.7095C1390.71 30.5769 1390.35 30.5107 1389.91 30.5107H1389.02V29.0888H1389.91C1390.27 29.0888 1390.58 29.0275 1390.84 28.9048C1391.11 28.7822 1391.32 28.6098 1391.48 28.3878C1391.63 28.1624 1391.7 27.9022 1391.7 27.6072C1391.7 27.3189 1391.64 27.0687 1391.51 26.8565C1391.38 26.6411 1391.19 26.4737 1390.95 26.3544C1390.72 26.2351 1390.44 26.1754 1390.12 26.1754C1389.81 26.1754 1389.52 26.2318 1389.26 26.3445C1388.99 26.4571 1388.78 26.6179 1388.62 26.8267C1388.45 27.0322 1388.37 27.2775 1388.36 27.5625H1386.58C1386.6 26.9924 1386.76 26.492 1387.08 26.0611C1387.39 25.6269 1387.82 25.2888 1388.35 25.0469C1388.88 24.8016 1389.47 24.679 1390.13 24.679C1390.81 24.679 1391.4 24.8066 1391.9 25.0618C1392.41 25.3137 1392.8 25.6534 1393.07 26.081C1393.35 26.5085 1393.48 26.9808 1393.48 27.4979C1393.49 28.0713 1393.32 28.5518 1392.98 28.9396C1392.64 29.3274 1392.2 29.581 1391.65 29.7003V29.7798C1392.36 29.8793 1392.91 30.1444 1393.29 30.5753C1393.68 31.0028 1393.87 31.5348 1393.86 32.1712C1393.86 32.7412 1393.7 33.2517 1393.38 33.7024C1393.05 34.1499 1392.61 34.5012 1392.04 34.7564C1391.48 35.0116 1390.83 35.1392 1390.1 35.1392ZM1400.22 29.1683V30.6499H1395.63V29.1683H1400.22ZM1401.73 35V33.6676L1405.27 30.2024C1405.61 29.861 1405.89 29.5578 1406.11 29.2926C1406.34 29.0275 1406.51 28.7706 1406.62 28.522C1406.73 28.2734 1406.79 28.0083 1406.79 27.7266C1406.79 27.4051 1406.72 27.13 1406.57 26.9013C1406.43 26.6693 1406.23 26.4903 1405.97 26.3643C1405.72 26.2384 1405.43 26.1754 1405.1 26.1754C1404.77 26.1754 1404.47 26.245 1404.22 26.3842C1403.97 26.5201 1403.77 26.714 1403.63 26.9659C1403.5 27.2178 1403.43 27.5178 1403.43 27.8658H1401.68C1401.68 27.2195 1401.82 26.6577 1402.12 26.1804C1402.41 25.7031 1402.82 25.3336 1403.34 25.0717C1403.86 24.8099 1404.45 24.679 1405.13 24.679C1405.81 24.679 1406.41 24.8066 1406.93 25.0618C1407.44 25.317 1407.84 25.6667 1408.13 26.1108C1408.42 26.5549 1408.56 27.062 1408.56 27.6321C1408.56 28.0133 1408.49 28.3878 1408.34 28.7557C1408.2 29.1236 1407.94 29.5312 1407.57 29.9787C1407.21 30.4261 1406.69 30.968 1406.04 31.6044L1404.28 33.3892V33.4588H1408.72V35H1401.73ZM1410.43 35V33.6676L1413.97 30.2024C1414.3 29.861 1414.58 29.5578 1414.81 29.2926C1415.04 29.0275 1415.2 28.7706 1415.32 28.522C1415.43 28.2734 1415.49 28.0083 1415.49 27.7266C1415.49 27.4051 1415.41 27.13 1415.27 26.9013C1415.12 26.6693 1414.92 26.4903 1414.67 26.3643C1414.41 26.2384 1414.12 26.1754 1413.8 26.1754C1413.46 26.1754 1413.17 26.245 1412.92 26.3842C1412.66 26.5201 1412.47 26.714 1412.33 26.9659C1412.19 27.2178 1412.13 27.5178 1412.13 27.8658H1410.37C1410.37 27.2195 1410.52 26.6577 1410.81 26.1804C1411.11 25.7031 1411.51 25.3336 1412.03 25.0717C1412.55 24.8099 1413.15 24.679 1413.82 24.679C1414.5 24.679 1415.1 24.8066 1415.62 25.0618C1416.14 25.317 1416.54 25.6667 1416.82 26.1108C1417.11 26.5549 1417.26 27.062 1417.26 27.6321C1417.26 28.0133 1417.18 28.3878 1417.04 28.7557C1416.89 29.1236 1416.63 29.5312 1416.27 29.9787C1415.9 30.4261 1415.39 30.968 1414.73 31.6044L1412.98 33.3892V33.4588H1417.41V35H1410.43ZM1431.3 32.5639L1434.36 27.3636H1436.21V35H1434.47V29.7947L1431.42 35H1429.56V27.3636H1431.3V32.5639ZM1437.53 35L1437.52 33.5185H1437.78C1437.98 33.5185 1438.15 33.4737 1438.28 33.3842C1438.42 33.2947 1438.53 33.1456 1438.62 32.9368C1438.71 32.7247 1438.78 32.4396 1438.83 32.0817C1438.88 31.7237 1438.91 31.2779 1438.93 30.7443L1439.07 27.3636H1444.64V35H1442.9V28.8402H1440.7L1440.58 31.3011C1440.55 31.9375 1440.48 32.4893 1440.37 32.9567C1440.26 33.4207 1440.11 33.8035 1439.9 34.1051C1439.7 34.4067 1439.45 34.6321 1439.15 34.7812C1438.85 34.9271 1438.49 35 1438.08 35H1437.53ZM1448.18 32.5639L1451.24 27.3636H1453.09V35H1451.35V29.7947L1448.3 35H1446.45V27.3636H1448.18V32.5639ZM1468.36 33.3693V26.4886H1469.92V33.3693H1468.36ZM1465.7 30.7095V29.1484H1472.58V30.7095H1465.7ZM1474.75 35L1479.08 26.429V26.3594H1474.05V24.8182H1480.99V26.3942L1476.66 35H1474.75ZM1483.06 29.9091C1483.06 28.6662 1483.22 27.5244 1483.55 26.4837C1483.88 25.4396 1484.37 24.4751 1485.03 23.5902H1486.72C1486.47 23.9183 1486.23 24.321 1486.02 24.7983C1485.8 25.2723 1485.61 25.7926 1485.44 26.3594C1485.28 26.9228 1485.16 27.5078 1485.07 28.1143C1484.98 28.7209 1484.93 29.3191 1484.93 29.9091C1484.93 30.6946 1485.01 31.4901 1485.17 32.2955C1485.32 33.1009 1485.54 33.8482 1485.81 34.5376C1486.08 35.2237 1486.38 35.7855 1486.72 36.223H1485.03C1484.37 35.3381 1483.88 34.3752 1483.55 33.3345C1483.22 32.2905 1483.06 31.1487 1483.06 29.9091ZM1491.63 24.679C1492.12 24.6823 1492.6 24.7685 1493.06 24.9375C1493.52 25.1032 1493.94 25.375 1494.31 25.7528C1494.68 26.1274 1494.98 26.6295 1495.19 27.2592C1495.41 27.889 1495.52 28.6679 1495.52 29.5959C1495.53 30.4709 1495.43 31.2531 1495.24 31.9425C1495.06 32.6286 1494.79 33.2086 1494.44 33.6825C1494.1 34.1565 1493.68 34.5178 1493.19 34.7663C1492.7 35.0149 1492.14 35.1392 1491.53 35.1392C1490.89 35.1392 1490.32 35.0133 1489.82 34.7614C1489.33 34.5095 1488.93 34.1648 1488.62 33.7273C1488.32 33.2898 1488.13 32.7893 1488.06 32.2259H1489.88C1489.97 32.6302 1490.16 32.9517 1490.44 33.1903C1490.73 33.4257 1491.09 33.5433 1491.53 33.5433C1492.24 33.5433 1492.78 33.2367 1493.16 32.6236C1493.54 32.0104 1493.73 31.1586 1493.73 30.0682H1493.66C1493.5 30.3598 1493.29 30.6117 1493.03 30.8239C1492.77 31.0327 1492.48 31.1934 1492.15 31.3061C1491.83 31.4188 1491.48 31.4751 1491.12 31.4751C1490.52 31.4751 1489.98 31.3326 1489.51 31.0476C1489.03 30.7625 1488.66 30.3714 1488.38 29.8743C1488.1 29.3771 1487.96 28.8087 1487.96 28.169C1487.96 27.5062 1488.11 26.9112 1488.42 26.3842C1488.73 25.8539 1489.16 25.4363 1489.71 25.1314C1490.26 24.8232 1490.9 24.6723 1491.63 24.679ZM1491.64 26.1705C1491.28 26.1705 1490.96 26.2583 1490.67 26.4339C1490.39 26.6063 1490.16 26.8416 1489.99 27.1399C1489.83 27.4349 1489.75 27.7647 1489.75 28.1293C1489.75 28.4905 1489.84 28.8187 1489.99 29.1136C1490.16 29.4086 1490.38 29.6423 1490.66 29.8146C1490.94 29.987 1491.26 30.0732 1491.62 30.0732C1491.89 30.0732 1492.14 30.0218 1492.37 29.919C1492.6 29.8163 1492.8 29.6738 1492.98 29.4915C1493.15 29.3059 1493.29 29.0954 1493.38 28.8601C1493.48 28.6248 1493.53 28.3762 1493.53 28.1143C1493.53 27.7663 1493.45 27.4448 1493.28 27.1499C1493.12 26.8549 1492.89 26.6179 1492.61 26.4389C1492.33 26.2599 1492 26.1705 1491.64 26.1705ZM1500.71 24.679C1501.2 24.6823 1501.67 24.7685 1502.13 24.9375C1502.6 25.1032 1503.02 25.375 1503.39 25.7528C1503.76 26.1274 1504.05 26.6295 1504.27 27.2592C1504.49 27.889 1504.6 28.6679 1504.6 29.5959C1504.6 30.4709 1504.51 31.2531 1504.32 31.9425C1504.14 32.6286 1503.87 33.2086 1503.52 33.6825C1503.17 34.1565 1502.75 34.5178 1502.26 34.7663C1501.77 35.0149 1501.22 35.1392 1500.61 35.1392C1499.97 35.1392 1499.4 35.0133 1498.9 34.7614C1498.4 34.5095 1498.01 34.1648 1497.7 33.7273C1497.4 33.2898 1497.21 32.7893 1497.14 32.2259H1498.95C1499.05 32.6302 1499.23 32.9517 1499.52 33.1903C1499.81 33.4257 1500.17 33.5433 1500.61 33.5433C1501.31 33.5433 1501.86 33.2367 1502.24 32.6236C1502.62 32.0104 1502.81 31.1586 1502.81 30.0682H1502.74C1502.58 30.3598 1502.37 30.6117 1502.11 30.8239C1501.85 31.0327 1501.56 31.1934 1501.23 31.3061C1500.91 31.4188 1500.56 31.4751 1500.2 31.4751C1499.6 31.4751 1499.06 31.3326 1498.59 31.0476C1498.11 30.7625 1497.74 30.3714 1497.46 29.8743C1497.18 29.3771 1497.04 28.8087 1497.04 28.169C1497.04 27.5062 1497.19 26.9112 1497.5 26.3842C1497.8 25.8539 1498.23 25.4363 1498.78 25.1314C1499.33 24.8232 1499.98 24.6723 1500.71 24.679ZM1500.72 26.1705C1500.36 26.1705 1500.04 26.2583 1499.75 26.4339C1499.46 26.6063 1499.24 26.8416 1499.07 27.1399C1498.91 27.4349 1498.83 27.7647 1498.83 28.1293C1498.83 28.4905 1498.91 28.8187 1499.07 29.1136C1499.23 29.4086 1499.46 29.6423 1499.73 29.8146C1500.02 29.987 1500.34 30.0732 1500.7 30.0732C1500.97 30.0732 1501.22 30.0218 1501.45 29.919C1501.68 29.8163 1501.88 29.6738 1502.06 29.4915C1502.23 29.3059 1502.37 29.0954 1502.46 28.8601C1502.56 28.6248 1502.61 28.3762 1502.61 28.1143C1502.61 27.7663 1502.52 27.4448 1502.36 27.1499C1502.2 26.8549 1501.97 26.6179 1501.69 26.4389C1501.41 26.2599 1501.08 26.1705 1500.72 26.1705ZM1509.79 24.679C1510.28 24.6823 1510.75 24.7685 1511.21 24.9375C1511.68 25.1032 1512.09 25.375 1512.47 25.7528C1512.84 26.1274 1513.13 26.6295 1513.35 27.2592C1513.57 27.889 1513.68 28.6679 1513.68 29.5959C1513.68 30.4709 1513.59 31.2531 1513.4 31.9425C1513.21 32.6286 1512.95 33.2086 1512.6 33.6825C1512.25 34.1565 1511.83 34.5178 1511.34 34.7663C1510.85 35.0149 1510.3 35.1392 1509.69 35.1392C1509.04 35.1392 1508.47 35.0133 1507.98 34.7614C1507.48 34.5095 1507.08 34.1648 1506.78 33.7273C1506.47 33.2898 1506.29 32.7893 1506.22 32.2259H1508.03C1508.12 32.6302 1508.31 32.9517 1508.6 33.1903C1508.89 33.4257 1509.25 33.5433 1509.69 33.5433C1510.39 33.5433 1510.94 33.2367 1511.32 32.6236C1511.7 32.0104 1511.89 31.1586 1511.89 30.0682H1511.82C1511.66 30.3598 1511.45 30.6117 1511.19 30.8239C1510.93 31.0327 1510.64 31.1934 1510.31 31.3061C1509.98 31.4188 1509.64 31.4751 1509.27 31.4751C1508.68 31.4751 1508.14 31.3326 1507.66 31.0476C1507.19 30.7625 1506.81 30.3714 1506.53 29.8743C1506.26 29.3771 1506.12 28.8087 1506.12 28.169C1506.12 27.5062 1506.27 26.9112 1506.57 26.3842C1506.88 25.8539 1507.31 25.4363 1507.86 25.1314C1508.41 24.8232 1509.06 24.6723 1509.79 24.679ZM1509.8 26.1705C1509.44 26.1705 1509.12 26.2583 1508.83 26.4339C1508.54 26.6063 1508.32 26.8416 1508.15 27.1399C1507.99 27.4349 1507.91 27.7647 1507.91 28.1293C1507.91 28.4905 1507.99 28.8187 1508.15 29.1136C1508.31 29.4086 1508.53 29.6423 1508.81 29.8146C1509.09 29.987 1509.42 30.0732 1509.78 30.0732C1510.04 30.0732 1510.29 30.0218 1510.53 29.919C1510.76 29.8163 1510.96 29.6738 1511.13 29.4915C1511.31 29.3059 1511.45 29.0954 1511.54 28.8601C1511.64 28.6248 1511.69 28.3762 1511.69 28.1143C1511.69 27.7663 1511.6 27.4448 1511.44 27.1499C1511.27 26.8549 1511.05 26.6179 1510.77 26.4389C1510.48 26.2599 1510.16 26.1705 1509.8 26.1705ZM1518.57 29.9091C1518.57 31.1487 1518.4 32.2905 1518.07 33.3345C1517.74 34.3752 1517.25 35.3381 1516.6 36.223H1514.9C1515.16 35.8949 1515.39 35.4938 1515.61 35.0199C1515.83 34.5459 1516.02 34.0256 1516.17 33.4588C1516.34 32.892 1516.46 32.3054 1516.55 31.6989C1516.65 31.0923 1516.69 30.4957 1516.69 29.9091C1516.69 29.1236 1516.61 28.3281 1516.45 27.5227C1516.3 26.7173 1516.08 25.9699 1515.81 25.2805C1515.54 24.5911 1515.24 24.0277 1514.9 23.5902H1516.6C1517.25 24.4751 1517.74 25.4396 1518.07 26.4837C1518.4 27.5244 1518.57 28.6662 1518.57 29.9091ZM1527.86 35.1392C1527.19 35.1392 1526.6 35.0149 1526.08 34.7663C1525.55 34.5144 1525.14 34.1697 1524.83 33.7322C1524.52 33.2947 1524.36 32.7943 1524.34 32.2308H1526.13C1526.16 32.6484 1526.35 32.9898 1526.67 33.255C1527 33.5168 1527.4 33.6477 1527.86 33.6477C1528.22 33.6477 1528.54 33.5649 1528.82 33.3991C1529.1 33.2334 1529.32 33.0031 1529.49 32.7081C1529.65 32.4131 1529.73 32.0767 1529.73 31.6989C1529.73 31.3144 1529.65 30.973 1529.48 30.6747C1529.32 30.3764 1529.09 30.1428 1528.8 29.9737C1528.51 29.8014 1528.18 29.7152 1527.81 29.7152C1527.5 29.7119 1527.2 29.7682 1526.91 29.8842C1526.61 30.0002 1526.38 30.1527 1526.21 30.3416L1524.54 30.0682L1525.07 24.8182H1530.98V26.3594H1526.6L1526.31 29.0589H1526.37C1526.55 28.8369 1526.82 28.6529 1527.17 28.5071C1527.51 28.358 1527.89 28.2834 1528.3 28.2834C1528.92 28.2834 1529.47 28.4292 1529.95 28.7209C1530.43 29.0092 1530.81 29.407 1531.09 29.9141C1531.37 30.4212 1531.51 31.0012 1531.51 31.6541C1531.51 32.3269 1531.36 32.9268 1531.04 33.4538C1530.74 33.9775 1530.31 34.3902 1529.76 34.6918C1529.21 34.9901 1528.58 35.1392 1527.86 35.1392ZM1536.91 35.1392C1536.42 35.1359 1535.94 35.0514 1535.48 34.8857C1535.01 34.7166 1534.6 34.4432 1534.23 34.0653C1533.85 33.6842 1533.56 33.1787 1533.34 32.549C1533.12 31.916 1533.01 31.1321 1533.02 30.1974C1533.02 29.3258 1533.11 28.5485 1533.3 27.8658C1533.48 27.183 1533.75 26.6063 1534.1 26.1357C1534.44 25.6617 1534.86 25.3004 1535.35 25.0518C1535.85 24.8033 1536.4 24.679 1537.01 24.679C1537.65 24.679 1538.22 24.8049 1538.71 25.0568C1539.21 25.3087 1539.61 25.6534 1539.91 26.0909C1540.22 26.5251 1540.41 27.0156 1540.48 27.5625H1538.66C1538.57 27.1714 1538.38 26.8598 1538.09 26.6278C1537.81 26.3925 1537.45 26.2749 1537.01 26.2749C1536.3 26.2749 1535.76 26.5814 1535.38 27.1946C1535 27.8078 1534.81 28.6496 1534.81 29.7202H1534.88C1535.04 29.4285 1535.25 29.1783 1535.51 28.9695C1535.77 28.7607 1536.06 28.5999 1536.38 28.4872C1536.71 28.3712 1537.06 28.3132 1537.42 28.3132C1538.02 28.3132 1538.55 28.4557 1539.03 28.7408C1539.51 29.0258 1539.88 29.4186 1540.16 29.919C1540.44 30.4162 1540.58 30.9863 1540.57 31.6293C1540.58 32.2988 1540.42 32.9003 1540.12 33.4339C1539.81 33.9643 1539.38 34.3819 1538.83 34.6868C1538.28 34.9917 1537.64 35.1425 1536.91 35.1392ZM1536.9 33.6477C1537.26 33.6477 1537.58 33.5599 1537.86 33.3842C1538.15 33.2086 1538.37 32.9716 1538.54 32.6733C1538.71 32.375 1538.79 32.0402 1538.78 31.669C1538.79 31.3045 1538.71 30.9747 1538.55 30.6797C1538.39 30.3847 1538.17 30.151 1537.88 29.9787C1537.6 29.8063 1537.28 29.7202 1536.92 29.7202C1536.65 29.7202 1536.4 29.7715 1536.17 29.8743C1535.94 29.977 1535.74 30.1196 1535.56 30.3018C1535.39 30.4808 1535.25 30.6896 1535.16 30.9283C1535.06 31.1636 1535.01 31.4155 1535.01 31.6839C1535.01 32.0386 1535.09 32.3651 1535.25 32.6634C1535.42 32.9616 1535.64 33.2003 1535.93 33.3793C1536.21 33.5582 1536.53 33.6477 1536.9 33.6477ZM1542.63 35L1546.96 26.429V26.3594H1541.93V24.8182H1548.87V26.3942L1544.54 35H1542.63ZM1555.12 29.1683V30.6499H1550.54V29.1683H1555.12ZM1556.81 33.1108V31.6442L1561.13 24.8182H1562.35V26.9062H1561.61L1558.7 31.5149V31.5945H1564.73V33.1108H1556.81ZM1561.67 35V32.6634L1561.69 32.0071V24.8182H1563.43V35H1561.67ZM1569.86 35.1392C1569.19 35.1392 1568.6 35.0149 1568.08 34.7663C1567.55 34.5144 1567.14 34.1697 1566.83 33.7322C1566.52 33.2947 1566.36 32.7943 1566.34 32.2308H1568.13C1568.16 32.6484 1568.35 32.9898 1568.67 33.255C1569 33.5168 1569.4 33.6477 1569.86 33.6477C1570.22 33.6477 1570.54 33.5649 1570.82 33.3991C1571.1 33.2334 1571.32 33.0031 1571.49 32.7081C1571.65 32.4131 1571.73 32.0767 1571.73 31.6989C1571.73 31.3144 1571.65 30.973 1571.48 30.6747C1571.32 30.3764 1571.09 30.1428 1570.8 29.9737C1570.51 29.8014 1570.18 29.7152 1569.81 29.7152C1569.5 29.7119 1569.2 29.7682 1568.91 29.8842C1568.61 30.0002 1568.38 30.1527 1568.21 30.3416L1566.54 30.0682L1567.07 24.8182H1572.98V26.3594H1568.6L1568.31 29.0589H1568.37C1568.55 28.8369 1568.82 28.6529 1569.17 28.5071C1569.51 28.358 1569.89 28.2834 1570.3 28.2834C1570.92 28.2834 1571.47 28.4292 1571.95 28.7209C1572.43 29.0092 1572.81 29.407 1573.09 29.9141C1573.37 30.4212 1573.51 31.0012 1573.51 31.6541C1573.51 32.3269 1573.36 32.9268 1573.04 33.4538C1572.74 33.9775 1572.31 34.3902 1571.76 34.6918C1571.21 34.9901 1570.58 35.1392 1569.86 35.1392ZM1579.82 29.1683V30.6499H1575.24V29.1683H1579.82ZM1585.26 35.1392C1584.54 35.1392 1583.9 35.0166 1583.35 34.7713C1582.79 34.526 1582.36 34.1847 1582.03 33.7472C1581.71 33.3097 1581.54 32.8042 1581.52 32.2308H1583.39C1583.41 32.5059 1583.5 32.7462 1583.67 32.9517C1583.83 33.1539 1584.05 33.3113 1584.33 33.424C1584.6 33.5367 1584.91 33.593 1585.25 33.593C1585.62 33.593 1585.94 33.5301 1586.22 33.4041C1586.5 33.2749 1586.72 33.0959 1586.88 32.8672C1587.04 32.6385 1587.12 32.375 1587.12 32.0767C1587.12 31.7685 1587.04 31.4967 1586.88 31.2614C1586.71 31.026 1586.48 30.8421 1586.17 30.7095C1585.87 30.5769 1585.5 30.5107 1585.07 30.5107H1584.17V29.0888H1585.07C1585.42 29.0888 1585.73 29.0275 1586 28.9048C1586.27 28.7822 1586.48 28.6098 1586.63 28.3878C1586.78 28.1624 1586.86 27.9022 1586.85 27.6072C1586.86 27.3189 1586.79 27.0687 1586.66 26.8565C1586.53 26.6411 1586.34 26.4737 1586.11 26.3544C1585.87 26.2351 1585.59 26.1754 1585.28 26.1754C1584.96 26.1754 1584.68 26.2318 1584.41 26.3445C1584.15 26.4571 1583.93 26.6179 1583.77 26.8267C1583.61 27.0322 1583.52 27.2775 1583.51 27.5625H1581.74C1581.75 26.9924 1581.91 26.492 1582.23 26.0611C1582.55 25.6269 1582.97 25.2888 1583.5 25.0469C1584.03 24.8016 1584.63 24.679 1585.29 24.679C1585.97 24.679 1586.56 24.8066 1587.06 25.0618C1587.56 25.3137 1587.95 25.6534 1588.22 26.081C1588.5 26.5085 1588.64 26.9808 1588.64 27.4979C1588.64 28.0713 1588.47 28.5518 1588.13 28.9396C1587.79 29.3274 1587.35 29.581 1586.8 29.7003V29.7798C1587.51 29.8793 1588.06 30.1444 1588.44 30.5753C1588.83 31.0028 1589.02 31.5348 1589.01 32.1712C1589.01 32.7412 1588.85 33.2517 1588.53 33.7024C1588.21 34.1499 1587.76 34.5012 1587.2 34.7564C1586.63 35.0116 1585.99 35.1392 1585.26 35.1392ZM1590.54 33.1108V31.6442L1594.86 24.8182H1596.08V26.9062H1595.33L1592.43 31.5149V31.5945H1598.46V33.1108H1590.54ZM1595.39 35V32.6634L1595.41 32.0071V24.8182H1597.15V35H1595.39Z" fill="white"/>
</svg>
